<svg xmlns="http://www.w3.org/2000/svg" viewBox="0 0 123.1 48.73"><defs><style>.cls-1,.cls-2{fill:none;stroke:#0b4f9e;stroke-width:3px;}.cls-1{stroke-miterlimit:10;}.cls-2{stroke-linejoin:round;}</style></defs><g id="Ebene_2" data-name="Ebene 2"><g id="Elements"><path class="cls-1" d="M51,36.84A12,12,0,0,0,64.5,37a7.92,7.92,0,0,0,2.85-3.23,10.6,10.6,0,0,0,.7-3.58c.49-7.79-5.51-17.59-14.29-12.92C46.34,21.17,43.41,31.3,51,36.84Z"/><path class="cls-1" d="M90.85,20.34a11.27,11.27,0,0,0-6.57,7.36A8.55,8.55,0,0,0,84,31.22a10.05,10.05,0,0,0,2.4,4.71,10.39,10.39,0,0,0,5.79,3.8,11.13,11.13,0,0,0,4.3-.19c4.33-.86,8.9-3.27,10-7.53C108.79,23.71,97.68,17.6,90.85,20.34Z"/><path class="cls-1" d="M55,28.8c2.82-3.69,4-8.37,5.71-12.7A31.59,31.59,0,0,1,64,9.26a10.86,10.86,0,0,1,5.89-4.53"/><path class="cls-1" d="M94.75,29.48a40.37,40.37,0,0,1-8.36-14.84"/><path class="cls-1" d="M79.15,15.1a15,15,0,0,0,13.08-3"/><path class="cls-2" d="M62.33,12.79c2.52,4.16,7.24,6.61,12,7.43s9.71.2,14.51-.57"/><path class="cls-2" d="M67.9.3a6,6,0,0,0,5,6.9"/><path class="cls-2" d="M68.5,26.93c2,2.45,4,5.9,6.07,8.35C77.63,33.91,84.33,17,87.39,15.64"/><path class="cls-2" d="M74.81,35c5.82-1.49,14.54-3.42,20.08-5.77"/><path class="cls-2" d="M36.79,29.52c-6.13.81-12.27-1.38-18.41-.57"/><path class="cls-2" d="M27.92,20.77a82.44,82.44,0,0,0-11.4,8.91c4.39,2.17,7.27,5.45,10.71,8.94"/><path class="cls-2" d="M0,45.1l123.05,2.13"/></g></g></svg>