<svg xmlns="http://www.w3.org/2000/svg" viewBox="0 0 55.84 85.02"><defs><style>.cls-1{fill:none;stroke:#0b4f9e;stroke-miterlimit:10;stroke-width:3px;}.cls-2{fill:#0b4f9e;}.cls-3{fill:#fff;}.cls-4{fill:#12519c;}</style></defs><g id="Ebene_2" data-name="Ebene 2"><g id="Elements"><path class="cls-1" d="M9.92,28.86c2.26,1.69,3.55,4.87,2.41,7.45s-5.1,3.6-6.95,1.47c-1.41-1.61-1.09-4.2.16-6A14,14,0,0,1,10.61,28"/><path class="cls-1" d="M7,40.24c-.91,3.64-6.94,20-5.12,23.31"/><path class="cls-1" d="M6.27,39.32C8.78,54,4.34,65.29,3,82.4c1.17,1.19,2.33.38,3.5,1.56"/><path class="cls-1" d="M8.64,61.19,10,77.68a8.39,8.39,0,0,0,1,4,2.85,2.85,0,0,0,3.56,1.2"/><path class="cls-1" d="M13.62,62.55A78.09,78.09,0,0,0,7.88,43"/><path class="cls-1" d="M38.66,29c.22,4.11,1.58,49.72.92,53.78"/><path class="cls-1" d="M31.27,4.17a10.72,10.72,0,0,0-3.41,6.22,19.25,19.25,0,0,0,2.41,14A11.31,11.31,0,0,0,33.56,28,12.89,12.89,0,0,0,41,29.63a15.85,15.85,0,0,0,6.81-1.42c2.08-1.06,7.9-6.74,6.31-16S38.66-1.78,31.27,4.17Z"/><path class="cls-2" d="M34.15,18.76c0-.53.11-8.46.16-9,.15-1.42.58-2.36,1.73-2.39,2.07-.06,6.24-.26,8.3-.31.55,0,1.54.22,1.73,2.17.23,2.46.47,6.29,1,10.26.22,1.58-.69,2-1.76,2.09a58.84,58.84,0,0,1-9.17.18C34.62,21.67,34.06,21.36,34.15,18.76Z"/><path class="cls-3" d="M39.11,10c-.65,0-1.3,0-2,0a.5.5,0,0,1-.48-.52c0-.27.51-.53.79-.5,2-.15,3.86,0,5.9-.13.28,0,.66.1.68.38s-.12.66-.39.69C42.22,10,40.56,10,39.11,10Z"/><path class="cls-3" d="M36.1,11.74c.07-.24.66-.27,1.14-.24s6.34-.21,6.53-.16,1-.16,1.16.43.18,1.61.31,2.71c0,.33.48,1.3-.13,1.33s-3.67.11-5.1.13-3.51.24-3.51.24-.9.26-.82-.85A15,15,0,0,1,36.1,11.74Z"/><path class="cls-3" d="M35.94,17.8a1,1,0,0,0,0,.83A.75.75,0,0,0,36,19a.63.63,0,0,0,.49.17,1.23,1.23,0,0,0,.68-.17.75.75,0,0,0,.32-.6.9.9,0,0,0-.23-.48A.87.87,0,0,0,35.94,17.8Z"/><path class="cls-3" d="M44.16,17.6a1,1,0,0,0,0,.83.69.69,0,0,0,.14.34.66.66,0,0,0,.49.17,1.21,1.21,0,0,0,.67-.18.67.67,0,0,0,.32-.6,1,1,0,0,0-1.59-.56Z"/><path class="cls-4" d="M37.73,21.54a1.16,1.16,0,0,0-.56-.36.69.69,0,0,0-.53,0,.56.56,0,0,0-.18.25,2.71,2.71,0,0,0-.12,1.06,1.34,1.34,0,0,0,.21.83.55.55,0,0,0,.2.17.79.79,0,0,0,1.16-.42A2,2,0,0,0,37.73,21.54Z"/><path class="cls-4" d="M45.19,21.06a1.15,1.15,0,0,0-.57-.36.63.63,0,0,0-.52,0,.41.41,0,0,0-.18.25A2.54,2.54,0,0,0,43.8,22a1.28,1.28,0,0,0,.21.83.4.4,0,0,0,.2.16.78.78,0,0,0,1.16-.42A2,2,0,0,0,45.19,21.06Z"/></g></g></svg>