<svg xmlns="http://www.w3.org/2000/svg" viewBox="0 0 115.23 74.63"><defs><style>.cls-1,.cls-2{fill:none;stroke:#0b4f9e;stroke-width:3px;}.cls-1{stroke-miterlimit:10;}.cls-2{stroke-linejoin:bevel;}</style></defs><g id="Ebene_2" data-name="Ebene 2"><g id="Elements"><path class="cls-1" d="M60.42,73.35a48.06,48.06,0,0,1,19.89-6.67,98.24,98.24,0,0,1,10.15-.32l12.87,0c3.87,0,8.26.26,10.75,3.22"/><path class="cls-1" d="M99.34,63.1c.17-14,.32-28.23-2.93-41.88a4.39,4.39,0,0,0-.82-1.93,4.26,4.26,0,0,0-2-1.1,53.3,53.3,0,0,0-8.06-2A245.31,245.31,0,0,1,85.49,66"/><path class="cls-2" d="M98.83,58.34a14.13,14.13,0,0,0,10.93-9.28,17.79,17.79,0,0,0-1.56-14.53,24.29,24.29,0,0,0-11.13-9.8"/><path class="cls-1" d="M36.21,33.84a23.14,23.14,0,0,0-15,.34,16.38,16.38,0,0,0-5.61,3.55,17.75,17.75,0,0,0-4.29,9.17c-1.34,6.8,1,13.92,6.79,17.69a20.67,20.67,0,0,0,11.17,3.63A15.92,15.92,0,0,0,38.09,66c6.58-4.24,8.49-13.4,8.83-16.58"/><path class="cls-1" d="M44.34,16.88a8.84,8.84,0,0,1-7.12,2c-1.47-.25-2.89-.88-4.37-.85s-3.15,1.05-3.11,2.54c.05,1.77,2.28,2.58,4,2.45a9.88,9.88,0,0,0,5.53-2.26c4,7.76,8.9,18.7,12.39,26.68"/><path class="cls-2" d="M40.49,32.8c-4,4.76-8.16,10.29-10.15,16.2a98.71,98.71,0,0,1,14-.72,5.27,5.27,0,0,1,3.54.95,30.74,30.74,0,0,1,2.88,3.05c1.38,1.73,4.14,1.75,6,.63s.07-4.82,2.27-5c7-.5,12.12-21.41,15.83-32.86A114.72,114.72,0,0,0,86.32,32.23"/><path class="cls-2" d="M56,54.92q1.88,3.22,3.64,6.51L58,61.7"/><path class="cls-2" d="M78.18,28.63a18.79,18.79,0,0,0-.9,24.76C79.22,55.76,81.9,57.71,85,58"/><path class="cls-2" d="M72,12.86a4,4,0,0,1-2.22-2.56c1.78-.4,3.85-1,4.41-2.78s-.63-3.34-1.85-4.58c-.94-1-2.37-1.9-3.52-1.2"/><path class="cls-1" d="M34.1,13.65a7,7,0,0,1-5.61,1.57A18.94,18.94,0,0,0,25,14.55c-1.18,0-2.48.83-2.45,2,0,1.39,1.79,2,3.18,1.93"/><path class="cls-2" d="M52.53,41.59c5.52-.4,9.56-16.88,12.48-25.92.35,3.45.35,3.45,3.76,7.67"/><path class="cls-2" d="M65.62,13.66a3,3,0,0,1-1.62-2c1.3-.3,2.81-.8,3.22-2.14S66.76,7,65.87,6c-.69-.74-1.74-1.46-2.58-.92"/><path class="cls-2" d="M48.42,33.22c3.89-.28,6.74-11.92,8.81-18.3.24,2.44.24,2.44,2.65,5.42"/><path class="cls-2" d="M57.66,13.5a2.15,2.15,0,0,1-1.15-1.39c.92-.22,2-.57,2.28-1.52a2.74,2.74,0,0,0-.95-2.49c-.49-.53-1.23-1-1.83-.66"/><path class="cls-1" d="M28.89,27.78C11.14,24.15,6.61,37.48,6,40.84c-1.33,6.8,1,13.92,6.8,17.69"/><path class="cls-2" d="M65.58,41.84c-.16,4.5.37,8,3.22,11.55,1.93,2.37,4.62,4.32,7.67,4.59"/><path class="cls-1" d="M20.43,26.21C5.59,22.32,1.2,37.64,1.52,40.25"/></g></g></svg>