<svg xmlns="http://www.w3.org/2000/svg" viewBox="0 0 70.15 54.85"><defs><style>.cls-1,.cls-2,.cls-3{fill:none;stroke:#0b4f9e;stroke-width:3px;}.cls-1,.cls-3{stroke-linejoin:round;}.cls-2{stroke-linejoin:bevel;}.cls-3{stroke-linecap:round;}</style></defs><g id="Ebene_2" data-name="Ebene 2"><g id="Elements"><path class="cls-1" d="M5.42,17.2c-1.16-.68-2.91.4-3.63,1.55s.1,3,1.41,3.62a7.5,7.5,0,0,0,4.31.32c-5.32,3.62-6.3,5.07-5.69,11.47.09,1,.23,9,.84,9.78,1,1.31,2.92,1.41,4.57,1.39q28.91-.24,57.79-.94a3.45,3.45,0,0,0,2.62-.83,3.38,3.38,0,0,0,.54-2.18l.17-11.53c.05-3.24-.35-7.21-3.31-8.51a10,10,0,0,0,3.16-3.18A3.42,3.42,0,0,0,67.66,14a3.06,3.06,0,0,0-4.23.84,4.84,4.84,0,0,0-.2,4.63C59,15.73,61.58,7.89,57.56,3.94,55.39,1.81,52,1.59,49,1.54q-13.41-.23-26.79.81A6.56,6.56,0,0,0,19,3.19a6.57,6.57,0,0,0-1.89,2.56L11.34,16.93c-.44.84-1.7,2.48-2.81,2.61C8,19.6,5.42,17.78,5.42,17.2Z"/><path class="cls-1" d="M7.69,46A4.94,4.94,0,0,0,9.74,50.7a4.19,4.19,0,0,0,5-.32,3.64,3.64,0,0,0,.36-4.87"/><path class="cls-1" d="M56.18,45.79a11.64,11.64,0,0,0-.31,4.31,3.89,3.89,0,0,0,2.62,3.17c1.83.46,3.68-1.06,4.29-2.85a11.54,11.54,0,0,0,0-5.6"/><path class="cls-2" d="M11.61,21c1.53.38,6,.05,7.66-.09a11.65,11.65,0,0,1-1.06-8.45,7.12,7.12,0,0,1,3.38-4.37,3.89,3.89,0,0,1,4.07.2A4.39,4.39,0,0,1,27.08,11a8.14,8.14,0,0,1-3.3,8l.75,2.32"/><path class="cls-1" d="M29.63,9.2a5,5,0,0,0,1.62,4.32A5,5,0,0,0,34,15c2.4.36,4.69-2.06,4.48-4.47a5.14,5.14,0,0,0-5-4.38S29.93,7.63,29.63,9.2Z"/><path class="cls-1" d="M23,21.83a297.23,297.23,0,0,1,35.44-.68"/><path class="cls-1" d="M48.35,15.66a5.34,5.34,0,0,1-5-4.19,5.34,5.34,0,0,1,3.08-5.74,8.76,8.76,0,0,1,3.82-.36,4.73,4.73,0,0,1,2.87.78c2.29,1.24.8,6.78.8,6.78s4.18,4.86,2.79,7.06"/><path class="cls-1" d="M37.43,7.29c.23-1.15,1.19-1.13,2.34-1.39s3.43.24,4.12,1.2"/><path class="cls-1" d="M38.48,14.33c1.1,1.23,4.47.84,5.11-.69"/><path class="cls-3" d="M51.77,16.14c-1.7-.81-5.35-.18-6.54,1.29"/><circle class="cls-2" cx="13.42" cy="32.29" r="2.83"/><circle class="cls-2" cx="57" cy="32.29" r="2.83"/></g></g></svg>