<svg xmlns="http://www.w3.org/2000/svg" viewBox="0 0 97.31 61.46"><defs><style>.cls-1{fill:none;stroke:#0b4f9e;stroke-miterlimit:10;stroke-width:3px;}</style></defs><g id="Ebene_2" data-name="Ebene 2"><g id="Elements"><path class="cls-1" d="M19.91,49.65a8.28,8.28,0,0,0,4.73,8,4.53,4.53,0,0,0,4.1.1,4.71,4.71,0,0,0,1.48-1.5,10.56,10.56,0,0,0,1-9.81C28.38,39.71,20.43,43.77,19.91,49.65Z"/><path class="cls-1" d="M65.83,53c-.63,1.68-.92,3.71.13,5.15a4.7,4.7,0,0,0,2.86,1.67A8.26,8.26,0,0,0,77,56.64a8.85,8.85,0,0,0,.82-8.79C74.38,40.42,67.55,48.44,65.83,53Z"/><path class="cls-1" d="M17.07,51.22c-3.42-2-7.52-2.57-10.92-4.57s-6-6.54-3.87-9.87c1.91-3,6.13-3,9.65-2.78a465.64,465.64,0,0,0,72.32-.82c2.86-.25,6-.47,8.34,1.12,2.72,1.83,3.57,5.55,3.09,8.79A15,15,0,0,1,81.75,55.47"/><path class="cls-1" d="M34.68,53.78q12.87.59,25.75.32"/><path class="cls-1" d="M20.66,33.6a140.78,140.78,0,0,1,15.27-16c2-1.77,4.11-3.54,6.67-4.27a19.06,19.06,0,0,1,5.23-.46l8.65,0a14.32,14.32,0,0,1,6.22.95,13.9,13.9,0,0,1,4.12,3.53A183.89,183.89,0,0,1,78.45,32"/><path class="cls-1" d="M45,33.51A26.61,26.61,0,0,0,46.59,25c0-1.88-.24-4.05-1.81-5.1a5,5,0,0,0-4.28-.24c-1.48.47-3,1.48-3.19,3s1.17,3.14.74,4.68a7.9,7.9,0,0,0-6.43,6.86"/><path class="cls-1" d="M55.58,33.88a8.7,8.7,0,0,1,1.37-9,2.78,2.78,0,0,1,1.31-.94A3.23,3.23,0,0,1,61,25a9,9,0,0,1,3.23,4.31c.47,1.76-.35,4-2.11,4.45"/><path class="cls-1" d="M83.23,18.62a8.35,8.35,0,0,0-7-6.29C82.24,13.24,81.92,12.68,83.23,18.62Z"/><path class="cls-1" d="M89.58,19.25A18,18,0,0,0,76.88,5.86C84.23,8.15,87.62,11.82,89.58,19.25Z"/><path class="cls-1" d="M81.31,1.48A17.49,17.49,0,0,1,95.54,16.75"/><path class="cls-1" d="M19.91,49.65a8.28,8.28,0,0,0,4.73,8,4.53,4.53,0,0,0,4.1.1,4.71,4.71,0,0,0,1.48-1.5,10.56,10.56,0,0,0,1-9.81C28.38,39.71,20.43,43.77,19.91,49.65Z"/><path class="cls-1" d="M65.83,53c-.63,1.68-.92,3.71.13,5.15a4.7,4.7,0,0,0,2.86,1.67A8.26,8.26,0,0,0,77,56.64a8.85,8.85,0,0,0,.82-8.79C74.38,40.42,67.55,48.44,65.83,53Z"/><path class="cls-1" d="M17.07,51.22c-3.42-2-7.52-2.57-10.92-4.57s-6-6.54-3.87-9.87c1.91-3,6.13-3,9.65-2.78a465.64,465.64,0,0,0,72.32-.82c2.86-.25,6-.47,8.34,1.12,2.72,1.83,3.57,5.55,3.09,8.79A15,15,0,0,1,81.75,55.47"/><path class="cls-1" d="M34.68,53.78q12.87.59,25.75.32"/><path class="cls-1" d="M20.66,33.6a140.78,140.78,0,0,1,15.27-16c2-1.77,4.11-3.54,6.67-4.27a19.06,19.06,0,0,1,5.23-.46l8.65,0a14.32,14.32,0,0,1,6.22.95,13.9,13.9,0,0,1,4.12,3.53A183.89,183.89,0,0,1,78.45,32"/><path class="cls-1" d="M45,33.51A26.61,26.61,0,0,0,46.59,25c0-1.88-.24-4.05-1.81-5.1a5,5,0,0,0-4.28-.24c-1.48.47-3,1.48-3.19,3s1.17,3.14.74,4.68a7.9,7.9,0,0,0-6.43,6.86"/><path class="cls-1" d="M55.58,33.88a8.7,8.7,0,0,1,1.37-9,2.78,2.78,0,0,1,1.31-.94A3.23,3.23,0,0,1,61,25a9,9,0,0,1,3.23,4.31c.47,1.76-.35,4-2.11,4.45"/></g></g></svg>