<svg xmlns="http://www.w3.org/2000/svg" viewBox="0 0 195.12 65.89"><defs><style>.cls-1,.cls-2,.cls-3{fill:none;stroke:#0b4f9e;stroke-width:3px;}.cls-1,.cls-2{stroke-miterlimit:10;}.cls-2{stroke-linecap:round;}.cls-3{stroke-linejoin:bevel;}</style></defs><g id="Ebene_2" data-name="Ebene 2"><g id="Elements"><path class="cls-1" d="M17.3,57.88C13.66,57.57,9.12,54.35,6.37,52c-12.64-11,1.92-29.5,14.15-41a29.83,29.83,0,0,1,12-7.29A42.81,42.81,0,0,1,43.69,2.54l82.45-1c6-.07,12.6.05,17.19,3.94,4.95,4.2,5.9,11.37,6.25,17.86q.46,9,.26,18c-.11,4.72-1.55,10.79-6.24,11.32"/><path class="cls-1" d="M121.36,56c-24.32.4-61.65.79-86,1.19"/><path class="cls-1" d="M17.58,53A9.13,9.13,0,0,0,21,62.35a11.8,11.8,0,0,0,3.53,1.49,12.15,12.15,0,0,0,5.25.42,6.54,6.54,0,0,0,4.41-2.78,9.63,9.63,0,0,0,1.16-3.42,14.31,14.31,0,0,0-.14-7.24C32.21,41.8,19.5,44.74,17.58,53Z"/><path class="cls-1" d="M126.26,48.55a9,9,0,0,0,.87,8.33c2.16,3.39,6.6,5.38,10.42,4.14,4.19-1.37,6.6-6.5,5.26-10.7C140.58,43.34,129.56,41.11,126.26,48.55Z"/><path class="cls-1" d="M140,32.69c5.07-1.4,10.46,1,14.67,4.1S162.48,44,167,46.62s10.57,3.77,14.92.8"/><path class="cls-1" d="M184.72,39.44c-2.18.68-4.61,4.11-4.28,6.37A5.63,5.63,0,0,0,185,50.36a6.42,6.42,0,0,0,6-2.47C189.41,44.62,184.72,39.44,184.72,39.44Z"/><path class="cls-2" d="M187.24,41.68l3.62-3"/><path class="cls-2" d="M190,44.69l3.61-3"/><path class="cls-2" d="M6.14,29.15c19.13,4,38.87,3.92,58.42,3.78a105.22,105.22,0,0,0,16.56-1c3.92-.65,7.75-1.75,11.59-2.72Q99,27.63,105.3,26.43A212.33,212.33,0,0,1,148,22.76"/><path class="cls-1" d="M16.69,23.42c1,1.08,2.36,2.92,3.82,3.43A14.44,14.44,0,0,1,25,22.73,4.9,4.9,0,0,1,26.91,22c1.3-.14,1.57-.38,2.26.66s-.71,6.39-1.94,8.54"/><path class="cls-2" d="M28.58,12.38a5.79,5.79,0,0,0-2.25,1.28A2.47,2.47,0,0,0,25.62,16a2.77,2.77,0,0,0,2,1.65,3.11,3.11,0,0,0,1.86,0A2.6,2.6,0,0,0,31,14.75a3.57,3.57,0,0,0-2.39-2.52"/><path class="cls-1" d="M39.63,31.64c.08-2.31.38-1.61.91-3.86a4.48,4.48,0,0,1,1.68-3,3.56,3.56,0,0,1,4.7.64c1.76,2.26,1.38,4.37.64,7.14"/><path class="cls-1" d="M52.08,32.33c-.56-2.24.27-5.58.49-7.88A3.53,3.53,0,0,1,53,22.79,2.52,2.52,0,0,1,55.94,22a5.12,5.12,0,0,1,2.37,2.12,11.49,11.49,0,0,1,1.77,8c.47-1.43,4.59-5.67,6.1-5.68s4,4,4.45,5.45"/><path class="cls-3" d="M76.07,32.22S77.83,20.76,78.67,20c1.26-1.17,3.34-.31,4.58.88,1.4,1.34,2.44,8.05,3,9.92a32.9,32.9,0,0,1,1.2-7.14c.49-1,2.45-.75,3,.26.87,1.62,1.94,4.85,2.3,5.3"/><path class="cls-3" d="M101.27,27.53A5.68,5.68,0,0,1,104.64,22c2.18-.78,5,.75,5.12,3.06"/><path class="cls-3" d="M132.2,22.77a16.18,16.18,0,0,1,2.54-5.21,3.84,3.84,0,0,1,2.58-1.81A3.47,3.47,0,0,1,140,17.07a8.71,8.71,0,0,1,2.27,5.05"/><path class="cls-1" d="M41.68,17a4,4,0,0,0,1.49,4.56c1.49.86,3.81-.05,4-1.77a3,3,0,0,0-2.22-2.89A8.51,8.51,0,0,0,41,16.83"/><path class="cls-2" d="M66.49,20.08a5.76,5.76,0,0,0-2.26,1.28,2.44,2.44,0,0,0-.7,2.38,2.72,2.72,0,0,0,2,1.65,3.11,3.11,0,0,0,1.86,0,2.61,2.61,0,0,0,1.53-2.95,3.58,3.58,0,0,0-2.4-2.52"/><path class="cls-1" d="M52.27,15.28c-.87,1.22-.15,3.81.89,4.89A2.55,2.55,0,0,0,57,19.9a2.77,2.77,0,0,0-.17-2.83,5.58,5.58,0,0,0-2.24-1.89c-1-.54-3.79.59-4.77,1.17"/><path class="cls-1" d="M91.9,16.81c.58.83.09,2.58-.61,3.31a1.72,1.72,0,0,1-2.62-.18A1.92,1.92,0,0,1,88.78,18a3.82,3.82,0,0,1,1.53-1.28c.68-.36,2.56.4,3.23.8"/><path class="cls-2" d="M80.91,11.09a5.67,5.67,0,0,0-2.25,1.28A2.47,2.47,0,0,0,78,14.75a2.8,2.8,0,0,0,2,1.65,3.11,3.11,0,0,0,1.86,0,2.62,2.62,0,0,0,1.53-3,3.58,3.58,0,0,0-2.4-2.51"/><path class="cls-1" d="M108.48,14.31a4,4,0,0,0-4.64,1.19c-1,1.43-.2,3.81,1.51,4.07a3,3,0,0,0,3-2,8.59,8.59,0,0,0,.34-3.88"/><path class="cls-2" d="M134.83,12.15a5.74,5.74,0,0,0,2.3,1.18,2.48,2.48,0,0,0,2.38-.71,2.76,2.76,0,0,0,.29-2.56,3,3,0,0,0-1-1.56,2.63,2.63,0,0,0-3.31.34,3.58,3.58,0,0,0-.78,3.39"/><path class="cls-3" d="M125.72,23.77a4.09,4.09,0,0,1,2.42-4c1.57-.56,3.62.55,3.68,2.21"/><path class="cls-1" d="M127.66,17.83a2.87,2.87,0,0,0,1.61-3.06,2,2,0,0,0-2.91-1.16,2.19,2.19,0,0,0-.38,2.6,6.13,6.13,0,0,0,1.92,2"/><path class="cls-3" d="M111.7,25.57a5.45,5.45,0,0,1,3.37-5.35c2.17-.75,5,.72,5.11,3"/><path class="cls-1" d="M115.62,18.17A2.88,2.88,0,0,0,118,15.61a2,2,0,0,0-2.52-1.89,2.22,2.22,0,0,0-1,2.43,6.24,6.24,0,0,0,1.34,2.49"/></g></g></svg>