<svg xmlns="http://www.w3.org/2000/svg" viewBox="0 0 131.08 61.57"><defs><style>.cls-1,.cls-2,.cls-3{fill:none;stroke:#0b4f9e;stroke-width:3px;}.cls-1{stroke-miterlimit:10;}.cls-2,.cls-3{stroke-linejoin:round;}.cls-3{stroke-linecap:round;}</style></defs><g id="Ebene_2" data-name="Ebene 2"><g id="Elements"><path class="cls-1" d="M19.91,49.76a8.28,8.28,0,0,0,4.73,8,4.56,4.56,0,0,0,4.1.1,4.93,4.93,0,0,0,1.48-1.5,10.58,10.58,0,0,0,1-9.82C28.38,39.82,20.43,43.87,19.91,49.76Z"/><path class="cls-1" d="M65.83,53.09c-.63,1.68-.92,3.7.13,5.15a4.68,4.68,0,0,0,2.86,1.66A8.24,8.24,0,0,0,77,56.74,8.85,8.85,0,0,0,77.82,48C74.38,40.53,67.55,48.55,65.83,53.09Z"/><path class="cls-1" d="M17.07,51.32c-3.42-2-7.52-2.56-10.92-4.57s-6-6.54-3.87-9.86c1.91-3,6.13-3,9.65-2.79a464.41,464.41,0,0,0,72.32-.81c2.86-.26,6-.48,8.34,1.12,2.72,1.83,3.57,5.55,3.09,8.79A15,15,0,0,1,81.75,55.58"/><path class="cls-1" d="M34.68,53.88q12.87.59,25.75.32"/><path class="cls-1" d="M20.66,33.71a140,140,0,0,1,15.27-16c2-1.78,4.11-3.55,6.67-4.27A18.69,18.69,0,0,1,47.83,13l8.65,0a14.33,14.33,0,0,1,6.22,1,13.76,13.76,0,0,1,4.12,3.53A180.36,180.36,0,0,1,78.45,32.13"/><path class="cls-1" d="M45,33.62a26.66,26.66,0,0,0,1.64-8.51c0-1.89-.24-4.05-1.81-5.11a5,5,0,0,0-4.28-.23c-1.48.47-3,1.47-3.19,3s1.17,3.13.74,4.67a7.91,7.91,0,0,0-6.43,6.87"/><path class="cls-1" d="M55.58,34A8.7,8.7,0,0,1,57,25,2.8,2.8,0,0,1,58.26,24,3.27,3.27,0,0,1,61,25.09a8.92,8.92,0,0,1,3.23,4.3c.47,1.77-.35,4-2.11,4.45"/><path class="cls-1" d="M84.78,41.67c3-1.53,6.64-1.07,9.78.12s6,3.07,9.07,4.4a22.54,22.54,0,0,0,13.84,1.58,15.79,15.79,0,0,0,10.81-8.37,16.77,16.77,0,0,0-.12-13.2,30.89,30.89,0,0,0-8-10.81"/><path class="cls-1" d="M119.44,2.8c2.66,3.27,5.43,7.79,3.18,11.35-1.69,2.65-5.55,3.14-8.46,1.94S109.09,12.42,107,10C107.89,11.1,115,5.28,119.44,2.8Z"/><path class="cls-2" d="M110.83,8,108.3,4.87C109.35,6.14,109.78,6.77,110.83,8Z"/><path class="cls-3" d="M116.28,4.25c-1.75-1.88-2.5-2.75-2.5-2.75"/></g></g></svg>