<svg xmlns="http://www.w3.org/2000/svg" viewBox="0 0 94.64 76.34"><defs><style>.cls-1,.cls-2{fill:none;stroke:#0b4f9e;stroke-miterlimit:10;stroke-width:3px;}.cls-2{stroke-linecap:round;}</style></defs><g id="Ebene_2" data-name="Ebene 2"><g id="Elements"><path class="cls-1" d="M75.61,70c-1.82-4,.43-9.11,3.86-11.82A5.8,5.8,0,0,0,81,56.71a4.15,4.15,0,0,0,.37-2.13,27.87,27.87,0,0,0-6.63-17.42,3.8,3.8,0,0,0-1.84-1.36c-2-.49-3.34,2.06-3.63,4.11-.77,5.6.27,11.56-1.94,16.77a5.12,5.12,0,0,1-1.84,2.44,5.33,5.33,0,0,1-3,.54,20.55,20.55,0,0,1-5.38-1A2.34,2.34,0,0,1,56,58.1a2,2,0,0,1-.32-1.55c.24-2.12,1.62-3.92,2.51-5.86s1.17-4.55-.43-6a5.79,5.79,0,0,0-2.56-1.11,50.24,50.24,0,0,0-16.12-1.28c-4,.33-8.17,1.24-11.2,3.88-8.61,7.48,1.17,14.46,7.55,18.3A53,53,0,0,0,61.2,72,43.49,43.49,0,0,0,75.61,70Z"/><path class="cls-1" d="M29,60.94c-.68.25-3.06,2.93-2.75,6.65.88,10.24,16.75,9,15.18.11"/><path class="cls-1" d="M79.79,70a5.14,5.14,0,0,0,2.88,3.33,7.24,7.24,0,0,0,2.5.35c2.32,0,5-.24,6.42-2a7.11,7.11,0,0,0,1.23-2.81,8.4,8.4,0,0,0,.27-3,6.28,6.28,0,0,0-3.39-4.57C84.11,58.31,77.87,64,79.79,70Z"/><path class="cls-1" d="M37.67,42.7a6.45,6.45,0,0,0,2.86,6.5c2.08,1.3,4.69,1.27,7.14,1.47a65.74,65.74,0,0,1,8.67,1.49"/><path class="cls-1" d="M65.78,41.9l5.08-5.55A9.28,9.28,0,0,0,73.13,33a3.18,3.18,0,0,0-1.08-3.63"/><path class="cls-1" d="M79.79,45.93a4.8,4.8,0,0,1,3.4-4l1,5.85a2.38,2.38,0,0,1-.12,1.69c-.65,1-2.2.5-3.22-.11"/><path class="cls-1" d="M32.22,63.67a3.56,3.56,0,0,0-1,3.76,3.53,3.53,0,0,0,3.11,2.33A2.64,2.64,0,0,0,36.4,69a1.8,1.8,0,0,0,.24-2.12"/><path class="cls-1" d="M78.93,59.63l5,6.41"/><path class="cls-1" d="M54.06,12.1A10.69,10.69,0,0,0,60,23.5a6.12,6.12,0,0,0,5.39.13,6,6,0,0,0,2.34-2.7c1.91-3.9.78-9.26-2.94-11.52s-9.49-.26-10.46,4"/><path class="cls-1" d="M65.91,20.78c-1.94-.3-4.09-.71-5.29-2.27s-.33-4.54,1.63-4.4l5.1,1.81"/><path class="cls-1" d="M61.2,59.67A26,26,0,0,0,61.27,50c-.73-3.15-2.7-6.18-5.7-7.4-2.82-1.15-6.76-1-7.91-3.85a5.76,5.76,0,0,1-.16-3.06,21.94,21.94,0,0,1,8.79-14.3C60.64,26.68,61.41,36.29,68,38.14"/><path class="cls-1" d="M25.81,48.3c-1.52-7.24-10-10.4-14.62-16.18A17.55,17.55,0,0,1,7.9,17.26"/><path class="cls-1" d="M4.25,15.66c1.67,2,4.92,2.82,6.84,1.1,2.61-2.35,3.3-5,2.27-10.12a28.7,28.7,0,0,0-11.81.77A10.66,10.66,0,0,0,4.25,15.66Z"/><path class="cls-2" d="M3.71,5.75A13.5,13.5,0,0,0,3.65,2"/><path class="cls-2" d="M9.43,5.71A15.47,15.47,0,0,1,8.68,1.5"/></g></g></svg>