<svg xmlns="http://www.w3.org/2000/svg" viewBox="0 0 120.96 71.23"><defs><style>.cls-1,.cls-2{fill:none;stroke:#0b4f9e;stroke-miterlimit:10;stroke-width:3px;}.cls-2{stroke-linecap:round;}</style></defs><g id="Ebene_2" data-name="Ebene 2"><g id="Elements"><path class="cls-1" d="M78,3.5C76.56,2.17,74.41,2,72.45,2Q40.28,1,8.07,2C6.25,2.1,4.24,2.23,3,3.51S1.48,7.07,1.5,9q.27,23.37,1.87,46.7c5.38,2,11.28,2.05,17,2.05H71.92c15.37,0,12.2-12.66,10.93-23.94C82,26.4,83.44,8.56,78,3.5Z"/><path class="cls-1" d="M82.11,13.23c8.25-.1,17,1.13,23.49,6.18,6.68,5.16,10,13.47,12.43,21.57,1.06,3.57,2,7.38,1,11s-4.44,6.8-8.11,6.14"/><path class="cls-1" d="M100,52.4c-1.85-.16-4.72,5.62-4.18,7.39.88,2.82,2.78,5.5,5.57,6.45a6.84,6.84,0,0,0,6.42-11.87c-2.15-1.68-5.08-1.92-7.79-1.75"/><path class="cls-1" d="M94.84,60.89l-60.7,1.48a8.68,8.68,0,0,1-9.83,7.23,8.69,8.69,0,0,1-6.53-10.3"/><path class="cls-1" d="M89.69,14.36c-.51,3.66-1,8.35-.27,12s3,7.12,6.41,8.38a13.52,13.52,0,0,0,4.87.62c4.23-.08,10.85-2.1,13.42-5.46"/><path class="cls-1" d="M2.49,41.76a36.45,36.45,0,0,0,16.78-.07,22.16,22.16,0,0,0,13.41-9.63"/><path class="cls-1" d="M43.84,26.4a13.63,13.63,0,0,1-6.13,5.38,6.47,6.47,0,0,1-2.61.64c-2.86,0-5-3-5.14-5.84s1.12-5.56,2.37-8.13C36.49,21,39.68,23.81,43.84,26.4Z"/><path class="cls-2" d="M35.47,20a12.41,12.41,0,0,0,2.89-3.78"/><path class="cls-2" d="M40.78,24.1a8.47,8.47,0,0,1,2-3.78"/></g></g></svg>