<svg xmlns="http://www.w3.org/2000/svg" viewBox="0 0 39.28 94.98"><defs><style>.cls-1,.cls-2{fill:none;stroke-miterlimit:10;stroke-width:3px;}.cls-1{stroke:#98c33a;}.cls-2{stroke:#d8d8d8;}</style></defs><g id="Ebene_2" data-name="Ebene 2"><g id="Landscape"><path class="cls-1" d="M26.13,36.25c-.25-6.46-.5-12.95.3-19.36A59.56,59.56,0,0,1,29.81,3.16c.28-.75.74-1.63,1.55-1.66a2,2,0,0,1,1.37.73c3.56,3.6,4.35,9,4.68,14.08,1.22,18.54-.25,42.73-9.5,59.27C25.17,63.4,26.61,48.79,26.13,36.25Z"/><path class="cls-1" d="M27.09,94.28a117.1,117.1,0,0,0,.72-19"/><path class="cls-2" d="M3.33,45.71c-1.05-5.07-2.09-10.17-1.77-15.4A33.69,33.69,0,0,1,4.45,18.82a2.47,2.47,0,0,1,1.85-1.6,3.31,3.31,0,0,1,1.87.33c5.05,2.19,6.7,6.35,7.69,10.29,3.66,14.47,4.43,33.9-5.83,48.71C5.09,67.39,5.36,55.55,3.33,45.71Z"/><path class="cls-2" d="M9.28,94.81a117.1,117.1,0,0,0,.72-19"/></g></g></svg>