<svg xmlns="http://www.w3.org/2000/svg" viewBox="0 0 62.39 83.12"><defs><style>.cls-1,.cls-2{fill:none;stroke-linejoin:bevel;stroke-width:3px;}.cls-1{stroke:#98c33a;}.cls-2{stroke:#d8d8d8;}</style></defs><g id="Ebene_2" data-name="Ebene 2"><g id="Landscape"><path class="cls-1" d="M15.42,15.2A10.81,10.81,0,0,0,4.68,17.81,7.14,7.14,0,0,0,2.39,23.3a4.31,4.31,0,0,0,3.93,4C3,30.13.89,34.61,1.66,38.92s4.93,8,9.26,7.44A8.72,8.72,0,0,0,13.36,55a13,13,0,0,0,8.71,2.91,10.49,10.49,0,0,0,6.85-2.21,5.87,5.87,0,0,0,1.76-6.63c3.72,2.92,8.18,5.11,12.9,5.25a12,12,0,0,0,11.2-6.19c2.31-4.13,2-10.09-2-12.52a15.7,15.7,0,0,0,8-11,12.65,12.65,0,0,0-5.12-12.29c-3.9-2.58-9.61-2.26-12.91,1.07A14.67,14.67,0,0,0,28.09,1.51C21.24,1.83,15.9,8.33,15.42,15.2Z"/><path class="cls-2" d="M31.3,83.1l-.62-42.62L18.27,28.11"/><path class="cls-2" d="M29.69,41.72A195.12,195.12,0,0,0,48.56,28.14"/><path class="cls-2" d="M40.78,33.8c-1.31-2.2-2.38-6.1-3.18-8.53"/><path class="cls-2" d="M22.51,32.89c-1.27,2.22-4.57,4.93-6.65,6.42"/></g></g></svg>