<svg xmlns="http://www.w3.org/2000/svg" viewBox="0 0 43.36 21.65"><defs><style>.cls-1{fill:none;stroke:#98c33a;stroke-miterlimit:10;stroke-width:3px;}</style></defs><g id="Ebene_2" data-name="Ebene 2"><g id="Landscape"><path class="cls-1" d="M1.5,21.4A72.14,72.14,0,0,1,3.67,8C4.51,4.84,6.69,1,10,1.56c2.66.46,3.84,3.49,4.32,6.09a47.94,47.94,0,0,1,.54,13.84A24,24,0,0,1,21.56,2.76c5.6,4.14,7,11.64,8,18.43a18.16,18.16,0,0,1,2-14.75,2.91,2.91,0,0,1,1.9-1.56,2.87,2.87,0,0,1,1.85.6,14.21,14.21,0,0,1,6.28,14.4"/></g></g></svg>