<svg xmlns="http://www.w3.org/2000/svg" viewBox="0 0 491.2 114.86"><defs><style>.cls-1,.cls-2,.cls-3{fill:none;stroke:#0b4f9e;stroke-width:3px;}.cls-1,.cls-2{stroke-miterlimit:10;}.cls-2{stroke-linecap:round;}.cls-3{stroke-linejoin:bevel;}</style></defs><g id="Ebene_2" data-name="Ebene 2"><g id="Elements"><path class="cls-1" d="M245.76,99.46c-2.63-23.58-5-51.71,5.62-72.92,3.19-6.35,8-12.51,14.78-14.52s14.32.63,19.73,5.21S294,29.08,297.25,35.37"/><path class="cls-1" d="M246,37.31c4.5-.5,9.1-1,13.54-.06s8.77,3.55,10.6,7.7c1.19,2.73,1.21,5.8,1.21,8.77l0,28.67a9.16,9.16,0,0,1-.91,4.82c-1,1.58-2.84,2.38-4.62,2.93a33.21,33.21,0,0,1-20.9-.43"/><path class="cls-1" d="M469.56,92.83c3.65-.31,8.18-3.53,10.94-5.94,12.63-11-1.92-29.5-14.15-41a29.83,29.83,0,0,0-12-7.29,43.32,43.32,0,0,0-11.2-1.13c-27.48-.34-115-.68-142.44-1-6-.08-12.61,0-17.19,3.94-5,4.2-5.91,11.37-6.25,17.85q-.46,9-.26,18c.11,4.72.44,13.54,5.14,14.06"/><path class="cls-1" d="M298.47,90.91c24.32.39,131.68.79,156,1.19"/><path class="cls-1" d="M469.41,94.27a4,4,0,0,1-1.54,4.16,5,5,0,0,1-1.56.66,5.28,5.28,0,0,1-2.33.19A2.89,2.89,0,0,1,462,98a4.37,4.37,0,0,1-.52-1.51,6.38,6.38,0,0,1,.07-3.22C462.92,89.31,468.56,90.62,469.41,94.27Z"/><path class="cls-2" d="M480.73,64.1c-18.78,4-19.28,4.05-38.87,3.91"/><path class="cls-1" d="M470.17,58.36c-1,1.09-2.35,2.93-3.81,3.43a14.41,14.41,0,0,0-4.53-4.11A4.73,4.73,0,0,0,460,57c-1.29-.14-1.56-.38-2.25.65s.7,6.39,1.93,8.55"/><path class="cls-2" d="M458.28,47.33a5.74,5.74,0,0,1,2.26,1.27,2.46,2.46,0,0,1,.7,2.39,2.78,2.78,0,0,1-2,1.65,3.11,3.11,0,0,1-1.86,0,2.62,2.62,0,0,1-1.53-3,3.57,3.57,0,0,1,2.4-2.51"/><path class="cls-1" d="M352.16,65.49c-.07-2.3-.38-1.6-.91-3.85a4.46,4.46,0,0,0-1.67-3,3.56,3.56,0,0,0-4.7.63c-1.76,2.27-1.39,4.38-.64,7.15"/><path class="cls-1" d="M339.71,66.19c.56-2.24-.26-5.58-.48-7.88a3.63,3.63,0,0,0-.47-1.66,2.51,2.51,0,0,0-2.9-.75A5.17,5.17,0,0,0,333.48,58a11.58,11.58,0,0,0-1.77,8c-.47-1.44-4.58-5.67-6.09-5.69s-4,4-4.46,5.46"/><path class="cls-1" d="M350.11,50.87a4,4,0,0,1-1.48,4.55c-1.49.87-3.82,0-4-1.76a3,3,0,0,1,2.21-2.89,8.51,8.51,0,0,1,3.89-.08"/><path class="cls-2" d="M325.31,53.94a5.67,5.67,0,0,1,2.25,1.28,2.47,2.47,0,0,1,.71,2.38,2.8,2.8,0,0,1-2,1.65,3.14,3.14,0,0,1-1.87,0,2.62,2.62,0,0,1-1.52-3,3.55,3.55,0,0,1,2.39-2.51"/><path class="cls-1" d="M339.53,49.14c.86,1.22.14,3.81-.89,4.89a2.56,2.56,0,0,1-3.87-.27,2.77,2.77,0,0,1,.16-2.83,5.63,5.63,0,0,1,2.25-1.9c1-.53,3.78.6,4.77,1.18"/><path class="cls-3" d="M401.94,73.31s-1.76-7.46-2.59-8.22c-1.27-1.16-3.35-.31-4.59.88-1.4,1.34-3.87,22.53-4.41,24.39,0-1.14.73-20.58.24-21.61s-2.45-.75-3,.26c.6-1.12-.59,3.47-5.12,3"/><path class="cls-1" d="M386.11,61.9c-.58.83-.09,2.58.61,3.31a1.72,1.72,0,0,0,2.62-.18,1.88,1.88,0,0,0-.11-1.91,3.8,3.8,0,0,0-1.52-1.29c-.69-.36-2.56.4-3.23.8"/><path class="cls-2" d="M397.1,56.18a5.79,5.79,0,0,1,2.25,1.28,2.47,2.47,0,0,1,.71,2.38,2.8,2.8,0,0,1-2,1.65,3.14,3.14,0,0,1-1.87,0,2.61,2.61,0,0,1-1.52-3A3.57,3.57,0,0,1,397.09,56"/><path class="cls-3" d="M300.24,64.7a16.11,16.11,0,0,0-2.55-5.21,3.84,3.84,0,0,0-2.58-1.81A3.49,3.49,0,0,0,292.48,59a8.61,8.61,0,0,0-2.26,5"/><path class="cls-2" d="M297.61,54.07a5.8,5.8,0,0,1-2.31,1.19,2.46,2.46,0,0,1-2.38-.72,2.76,2.76,0,0,1-.29-2.55,3.17,3.17,0,0,1,1-1.57,2.62,2.62,0,0,1,3.31.35,3.57,3.57,0,0,1,.79,3.38"/><path class="cls-3" d="M306.72,65.7a4.08,4.08,0,0,0-2.42-4c-1.57-.56-3.63.54-3.69,2.21"/><path class="cls-1" d="M304.77,59.75a2.86,2.86,0,0,1-1.6-3,1.94,1.94,0,0,1,2.9-1.16,2.16,2.16,0,0,1,.38,2.59,6.23,6.23,0,0,1-1.91,2"/><path class="cls-3" d="M430,66a5.68,5.68,0,0,0-3.37-5.55c-2.17-.78-5,.75-5.11,3.06"/><path class="cls-1" d="M422.78,52.82A4,4,0,0,1,427.42,54c1,1.44.2,3.81-1.5,4.08a3,3,0,0,1-3-2,8.47,8.47,0,0,1-.33-3.88"/><path class="cls-3" d="M419.56,64.08a5.45,5.45,0,0,0-3.36-5.35c-2.18-.76-5,.72-5.12,3"/><path class="cls-1" d="M415.64,56.67a2.87,2.87,0,0,1-2.35-2.55,2,2,0,0,1,2.53-1.89,2.2,2.2,0,0,1,1,2.43,6.34,6.34,0,0,1-1.33,2.49"/><path class="cls-2" d="M444.32,44.94c-3.39,5.5-4.35,12.24-3.69,18.67s2.83,12.6,5.35,18.54"/><path class="cls-1" d="M299.92,93.77a4,4,0,0,1-1.54,4.16,5,5,0,0,1-1.56.66,5.28,5.28,0,0,1-2.33.19,2.89,2.89,0,0,1-2-1.24A4.37,4.37,0,0,1,292,96a6.38,6.38,0,0,1,.07-3.22C293.43,88.81,299.07,90.12,299.92,93.77Z"/><path class="cls-1" d="M290.44,93.42a4.5,4.5,0,0,1-.43,4.16,4.72,4.72,0,0,1-5.21,2.07,4.39,4.39,0,0,1-2.63-5.35C283.28,90.81,288.79,89.7,290.44,93.42Z"/><path class="cls-1" d="M361.74,90.35c-.9-9.69-1.37-13.4-1.39-23.11,0-8.91-1.86-21,19.28-20.33,3,.09,9.22,0,12,.59,6,1.18,9.55,3.6,10.15,7.3,1.24,7.7.36,8.52.68,12.86.56,7.58-.88,15.15-.31,22.73"/><path class="cls-1" d="M382.64,46.68q-.45,22,.34,44"/><path class="cls-2" d="M433.54,60.13c-.09,1.6-.3,3.41-1.58,4.38a5.54,5.54,0,0,1-3.44.77l-12.91.1a5.56,5.56,0,0,1-2.26-.31c-1.49-.66-2.07-2.44-2.37-4a33.4,33.4,0,0,1-.31-9.93c.29-2.31,1-4.89,3.1-6a8.1,8.1,0,0,1,4.46-.44c4.84.43,8.67-.11,13.5.38C435.16,45.42,433.71,57.41,433.54,60.13Z"/><path class="cls-1" d="M354.23,60.51c-.06,1.63-.19,3.41-1.32,4.59a6.41,6.41,0,0,1-3.83,1.53A83.77,83.77,0,0,1,335,67l-45.06-1.32a3.72,3.72,0,0,1-2.72-.83,3.6,3.6,0,0,1-.67-2.31,68.16,68.16,0,0,1,.82-14,6.14,6.14,0,0,1,1-2.87c1.2-1.5,3.4-1.61,5.32-1.59q19.6.24,39.2.54c4.64.08,15.66-1.84,19.63.36C356.27,47,354.37,56.44,354.23,60.51Z"/><path class="cls-1" d="M370.46,90.36c-1.71-10-3.91-12.91-3.91-12.91s3.95-9.4.76-13.64a2.56,2.56,0,0,0-2.9-.75A5.1,5.1,0,0,0,362,65.17c-1.55,2.33-.2,8.25.22,11"/><path class="cls-1" d="M368.08,56.29c.86,1.23.15,3.81-.89,4.9a2.55,2.55,0,0,1-3.87-.28,2.78,2.78,0,0,1,.16-2.82,5.62,5.62,0,0,1,2.25-1.9c1-.53,3.79.6,4.77,1.18"/><path class="cls-1" d="M460.53,94.23A4,4,0,0,1,459,98.39a5.29,5.29,0,0,1-1.57.66,5.41,5.41,0,0,1-2.33.18,2.86,2.86,0,0,1-2-1.23,4.22,4.22,0,0,1-.52-1.52,6.46,6.46,0,0,1,.06-3.21C454,89.27,459.68,90.57,460.53,94.23Z"/><path class="cls-1" d="M271.31,78.56c2.23,1.58,2.85.63,5.56,1"/><path class="cls-3" d="M244.53,44.72l7.54-.7c3.35-.31,7.49-.23,9.1,2.73a8.71,8.71,0,0,1,.72,4.12l.16,13.6a71.23,71.23,0,0,1-18.73-.69"/><path class="cls-3" d="M253,92.18a3.85,3.85,0,0,0-1.91,5.57,3.63,3.63,0,0,0,5.77-.09,3.44,3.44,0,0,0-2.62-5"/><path class="cls-1" d="M.44,113.43C107,81.08,181.94,16.51,271.62,10.66"/><path class="cls-1" d="M377.45,36.74a26.07,26.07,0,0,1-3.5-11.5"/><path class="cls-1" d="M363.42,6.5c-2.25,5-1.25,11.44,2.8,15.15s10.95,4,15,.29c3.78-3.49,4.39-9.22,4-14.35"/><path class="cls-1" d="M271.62,10.81Q381.43,8,491.11,1.5"/></g></g></svg>