<svg xmlns="http://www.w3.org/2000/svg" viewBox="0 0 38.08 100.5"><defs><style>.cls-1{fill:none;stroke:#0b4f9e;stroke-miterlimit:10;stroke-width:3px;}</style></defs><g id="Ebene_2" data-name="Ebene 2"><g id="Elements"><path class="cls-1" d="M1.84,36.36a6.44,6.44,0,0,0,.31,2.55c.91,2.19,3.77,2.63,6.15,2.74l23.87,1.13a3.69,3.69,0,0,0,2.28-.4,3.65,3.65,0,0,0,1.11-2.81,294.19,294.19,0,0,0,.93-31.7,6.36,6.36,0,0,0-.21-1.79c-.79-2.48-4-3-6.61-3.12C23.25,2.7,4.59-1.42,2,5.46c-1.21,3.23.22,10,.15,13.52Z"/><path class="cls-1" d="M13.16,32.92a204.78,204.78,0,0,0,.71-20.87c4.3-.92,9.61.71,11,4.88a6.68,6.68,0,0,1-2.68,7.53,6.67,6.67,0,0,1-7.94-.82"/><path class="cls-1" d="M16.55,42.89c.34,6.47,0,51-1.05,57.36"/></g></g></svg>