<svg xmlns="http://www.w3.org/2000/svg" viewBox="0 0 79.66 62.66"><defs><style>.cls-1,.cls-2{fill:none;stroke:#0b4f9e;stroke-width:3px;}.cls-1{stroke-miterlimit:10;}.cls-2{stroke-linejoin:bevel;}</style></defs><g id="Ebene_2" data-name="Ebene 2"><g id="Elements"><path class="cls-1" d="M17.3,11.79c3.13.81,6.87-1,7.66-4.14S22.74.91,19.58,1.58a5.55,5.55,0,0,0-4,4.5,11.32,11.32,0,0,0,.94,6.21"/><path class="cls-2" d="M3.55,61.33A4.65,4.65,0,0,1,1.4,58.88a12.29,12.29,0,0,0,6-4.11c2.82-3.91,5-14,4.43-18.78-1.42-11.52,1.51-12.56,4.82-23.67,1.3,8.8,9.37,13.21,18.22,14.12"/><path class="cls-2" d="M25.81,32.28,29,28.79s5.34,1.86,6.32,3.26a18.11,18.11,0,0,1,2,4.7c1.47,4.27,3.86,8.49,7.76,10.78a20,20,0,0,0,9.72,2.25,26.9,26.9,0,0,0,9.53-1.24,18.58,18.58,0,0,0,9.93-26.87"/><path class="cls-2" d="M40.06,42.59A128.17,128.17,0,0,0,74.25,23.45"/><path class="cls-2" d="M42.37,55c-1.68-.08-3.69,0-4.58,1.43a2.86,2.86,0,0,0,.45,3.35,4.2,4.2,0,0,0,3.3,1.2,3.88,3.88,0,0,0,3.65-2.64c.37-1.57-1.16-3.41-2.7-2.95"/><path class="cls-2" d="M75.28,55c-1.68-.08-3.69,0-4.58,1.43a2.87,2.87,0,0,0,.45,3.35,4.21,4.21,0,0,0,3.3,1.2A3.88,3.88,0,0,0,78.1,58.3c.37-1.57-1.15-3.41-2.7-2.95"/><path class="cls-2" d="M44.3,40.81c1.52-2,0-5.08,7-9,2.43-1.38,6.77-1.49,9.41-.48A5.87,5.87,0,0,1,64,25.91a7,7,0,0,1,6.37-.48"/><path class="cls-1" d="M41.89,55.35c1-2.88,4-6,7-6"/><path class="cls-1" d="M65.81,48.05a7.36,7.36,0,0,1,8.06,5.71"/><path class="cls-2" d="M14.07,33.81A110.7,110.7,0,0,1,25,57.65a4.46,4.46,0,0,0,1.17,2.17,1.51,1.51,0,0,0,2.19-.16"/></g></g></svg>