<svg xmlns="http://www.w3.org/2000/svg" viewBox="0 0 39.33 45.47"><defs><style>.cls-1{fill:none;stroke:#0b4f9e;stroke-miterlimit:10;stroke-width:3px;}</style></defs><g id="Ebene_2" data-name="Ebene 2"><g id="Elements"><path class="cls-1" d="M31.77,28.7a189,189,0,0,0-8.67-26,1.86,1.86,0,0,0-3.56.2Q15.39,16.48,10.2,29.61c2.38,4,6.8,6.79,11.05,6S29.7,34.19,31.77,28.7Z"/><path class="cls-1" d="M11.41,23.66c-3.67.71-7.87,1.82-9.4,5.23-1.32,3,.09,6.55,2.32,8.92,4.24,4.48,10.82,5.8,17,6.1,4,.19,8.16,0,11.49-2.15a11,11,0,0,0-2.17-19.58"/><path class="cls-1" d="M14.64,17.45a19.39,19.39,0,0,0,9.54-6.34"/><path class="cls-1" d="M11.5,25.53a17.26,17.26,0,0,0,15.28-4.19"/></g></g></svg>