<svg xmlns="http://www.w3.org/2000/svg" viewBox="0 0 109.11 73.71"><defs><style>.cls-1,.cls-2{fill:none;stroke:#0b4f9e;stroke-width:3px;}.cls-1{stroke-miterlimit:10;}.cls-2{stroke-linejoin:bevel;}</style></defs><g id="Ebene_2" data-name="Ebene 2"><g id="Elements"><path class="cls-1" d="M19.38,34c-4.2,2.44-8.64,7.08-6.94,11.83.77,2.14,2.62,3.6,4.45,4.8,18,11.78,40.76,10.07,61.58,6.5C86,55.83,95,53.11,97.18,45.3c1.75-6.1-1.82-12.77-6.82-16.29-10.18-7.17-23.46-5.57-35-4.67C43,25.31,30.41,27.58,19.38,34Z"/><path class="cls-1" d="M9.79,13.64C7.5,15.28,6.14,18.44,7.23,21s5,3.71,6.91,1.62c1.44-1.58,1.18-4.18,0-5.95a14,14,0,0,0-5-4"/><path class="cls-1" d="M9.36,24.17c-12.67,39.52,14.54,21.25,2.71,47,1.17,1.19,4,1,4,1"/><path class="cls-1" d="M16.89,50.63C24.45,54.81,19,61.72,20.66,67a8.25,8.25,0,0,0,1.86,3.65,2.88,2.88,0,0,0,3.74.39"/><path class="cls-1" d="M8.14,30.22c2.9,3,9.21,9.55,13.24,10.57"/><path class="cls-1" d="M1.5,34c.05,2.24.08,4.48.07,6.72A36.55,36.55,0,0,0,2,47.4c.72,3.85,3.3,6.26,3.21,10.3A33.28,33.28,0,0,1,1.59,72.07"/><path class="cls-1" d="M4.52,53.41a9.07,9.07,0,0,0,7.56,1.18"/><path class="cls-1" d="M94.61,6.22a5.26,5.26,0,0,1,3.75,6.09A5.07,5.07,0,0,1,88.49,10a5.26,5.26,0,0,1,6.06-3.81"/><path class="cls-1" d="M97,15.82a15.08,15.08,0,0,1-2.27,14.66c-3,3.94-7.35,2.27-12.12,5"/><path class="cls-1" d="M97,15.82c5.27,7.37,5.41,16.26,5.26,21.65-.06,2.32-.28,4.8-1.7,6.64"/><path class="cls-1" d="M107.61,28.22c0,2.24-.08,4.48-.07,6.72a36.5,36.5,0,0,1-.38,6.7c-.72,3.86-3.3,6.27-3.21,10.31a33.2,33.2,0,0,0,3.57,14.36"/><path class="cls-1" d="M104.59,47.66A9.1,9.1,0,0,1,97,48.84"/><path class="cls-1" d="M89.37,54.06a33,33,0,0,0,4.79,11.33,9.26,9.26,0,0,1-4.41,1.26"/><path class="cls-1" d="M41.94,42.24a30.11,30.11,0,0,1-17.6,1.57A16.91,16.91,0,0,0,25,37.14a18.7,18.7,0,0,0,12.45-2.27A17.2,17.2,0,0,1,41.94,42.24Z"/><path class="cls-1" d="M60.91,1.54c-1.64,1.7-1.16,5.91.18,7.86s4.6,2.34,6.11.53a4.38,4.38,0,0,0,.45-4.45,8.82,8.82,0,0,0-3-3.52c-1.46-1.08-6,0-7.74.66"/><path class="cls-2" d="M64.43,22.72a13.57,13.57,0,0,0-.34-10.66c.45,1.92-1.15,3.54-2.26,5.17a14.56,14.56,0,0,1-3.62,3.33A14.2,14.2,0,0,0,54.6,23.9,4.86,4.86,0,0,0,54,28.58"/><path class="cls-2" d="M65.64,12.14c.89.41,1.39,1.35,2,2.1A7.52,7.52,0,0,0,73,16.7a13.12,13.12,0,0,0,5.87-1.22"/><path class="cls-1" d="M73.11,41.49c-3.53,1-7.24.5-10.84-.14a33.91,33.91,0,0,0,.78-10.09c0-.78.62-1.33.24-2A30.22,30.22,0,0,0,72.78,29,22.73,22.73,0,0,1,73.11,41.49Z"/><path class="cls-1" d="M34.32,5.4a5.26,5.26,0,0,1,3.75,6.09A5.27,5.27,0,0,1,32,15.26,5.28,5.28,0,0,1,28.2,9.19a5.26,5.26,0,0,1,6.05-3.81"/><path class="cls-1" d="M33.26,15.61A28.88,28.88,0,0,0,33,27"/><path class="cls-1" d="M25.65,29.84c-.85-3.25,1.14-6.51,3.06-9.27C29.8,19,31.1,17.36,33,17.09a5.62,5.62,0,0,1,3.45.89,14.13,14.13,0,0,1,6.45,7.8"/></g></g></svg>