<svg xmlns="http://www.w3.org/2000/svg" viewBox="0 0 79.14 43.07"><defs><style>.cls-1{fill:none;stroke:#0b4f9e;stroke-linejoin:round;stroke-width:3px;}.cls-2{fill:#0b4f9e;}</style></defs><g id="Ebene_2" data-name="Ebene 2"><g id="Elements"><path class="cls-1" d="M2,41.24A241.9,241.9,0,0,0,1.5,1.5c24.65,1.18,49,1.35,73.68.5l2.46,39.06C52.44,42,27.16,41.43,2,41.24Z"/><path class="cls-1" d="M3.1,18.89a533.89,533.89,0,0,0,72,1.15"/><path class="cls-1" d="M8.15,8c2.52.19,8,.38,10.56.56a13,13,0,0,1,4.6.91A4.41,4.41,0,0,1,26,13a1.2,1.2,0,0,1-.2.81,1.52,1.52,0,0,1-1.32.38c-4.65-.15-12.31-.3-17-.45"/><path class="cls-1" d="M15.67,8.16l-.36,4.75"/><path class="cls-1" d="M32.08,12.58c4.23.13,5.45-.74,9.68-.6"/><path class="cls-1" d="M38.56,8.54q2,1.88,3.94,3.79c-.67,1-3.35,3-4,4"/><path class="cls-1" d="M20.05,9.41a4.36,4.36,0,0,0,5.08,2"/><path class="cls-1" d="M7.5,26.19c14.34,1.2,28.75,1.72,43.15,1.55"/><path class="cls-1" d="M56.68,28.7a5.38,5.38,0,0,0,3-.43"/><path class="cls-1" d="M66.72,28.56H70.1"/><path class="cls-1" d="M7.09,33.56l43.55.58"/><path class="cls-2" d="M53.78,15.26H51.43V10.73c0-.55,0-1.06,0-1.51a6.86,6.86,0,0,1-.54.55l-1,.8-1.2-1.48L51.7,6.7h2.08Z"/><path class="cls-2" d="M64.24,15.26V11.65a2.24,2.24,0,0,0-.19-1,.62.62,0,0,0-.58-.33.81.81,0,0,0-.77.45,3,3,0,0,0-.25,1.41v3.09h-2.3V11.65a2.42,2.42,0,0,0-.17-1,.6.6,0,0,0-.57-.33.84.84,0,0,0-.79.48,3.74,3.74,0,0,0-.24,1.57v2.9H56.09V8.63h1.72l.29.82h.14a1.67,1.67,0,0,1,.76-.7,2.58,2.58,0,0,1,1.14-.24,2.25,2.25,0,0,1,2,.87h.18a1.9,1.9,0,0,1,.78-.64,2.64,2.64,0,0,1,1.1-.23,2.27,2.27,0,0,1,1.74.6A2.6,2.6,0,0,1,66.53,11v4.31Z"/><path class="cls-1" d="M56.68,34.7a5.38,5.38,0,0,0,3-.43"/><path class="cls-1" d="M66.72,34.56H70.1"/></g></g></svg>