<svg xmlns="http://www.w3.org/2000/svg" viewBox="0 0 79.9 107.18"><defs><style>.cls-1{fill:none;stroke:#0b4f9e;stroke-linejoin:bevel;stroke-width:3px;}</style></defs><g id="Ebene_2" data-name="Ebene 2"><g id="Elements"><path class="cls-1" d="M19.53,19.24A14,14,0,0,0,5.62,22.62a9.19,9.19,0,0,0-3,7.1c.25,2.64,2.44,5.15,5.08,5.14-4.28,3.71-7,9.51-6,15.1s6.4,10.35,12,9.63a11.29,11.29,0,0,0,3.15,11.2,16.94,16.94,0,0,0,11.28,3.77A13.65,13.65,0,0,0,37,71.7c2.4-2.09,3.63-5.71,2.29-8.59,4.81,3.78,10.59,6.62,16.7,6.8a15.61,15.61,0,0,0,14.5-8c3-5.34,2.61-13.07-2.63-16.21A20.28,20.28,0,0,0,78.2,31.47c.94-6-1.58-12.57-6.63-15.92s-12.44-2.92-16.71,1.38c-1.43-8.8-10-15.82-18.92-15.41S20.15,10.34,19.53,19.24Z"/><path class="cls-1" d="M40.08,107.16,39.28,52,23.22,36"/><path class="cls-1" d="M38,53.58A253.89,253.89,0,0,0,62.44,36"/><path class="cls-1" d="M52.36,43.33c-1.7-2.86-3.08-7.9-4.11-11.06"/><path class="cls-1" d="M28.7,42.14c-1.64,2.88-5.91,6.39-8.61,8.32"/></g></g></svg>