<svg xmlns="http://www.w3.org/2000/svg" viewBox="0 0 282.77 130.45"><defs><style>.cls-1{fill:none;stroke:#d8d8d8;stroke-miterlimit:10;stroke-width:3px;}</style></defs><g id="Ebene_2" data-name="Ebene 2"><g id="Landscape"><path class="cls-1" d="M136,129.81c-.38-9.81-.59-29.16-1-39C153.6,82.72,172.42,74.11,190.94,66c18.92,7.12,37.12,14.13,55.62,22.26,1,10.78-2.08,24-1.05,34.74"/><path class="cls-1" d="M228.34,79.67c-1.29-7.36-.17-18.64-.64-26.1,5.58-6,14-13.66,17.12-21.26,7.19,5.95,9.75,13.1,17.48,22.88,1,6.46-1.12,61-.16,67.45"/><path class="cls-1" d="M57.24,130.39c-.83-18.35.38-23-.45-41.34,20.63-5.74,31.6-10.17,61.62-17.11-.84,17.76,0,40.74-1.11,57.93"/><path class="cls-1" d="M262.4,76.55s9.38,6,18.78,10.63c-1.79,19.92-.36,14.34-1.31,34.36"/><path class="cls-1" d="M92.1,79.25c-.86-4.42,1.19-27,1.69-31.42,20.53,4,24.92,6.56,46,11.71.31,4.45.41,7.27.72,11.72,3.68.24,7.38.37,11.06.6-.06,3.71-.09,7-.15,10.71"/><path class="cls-1" d="M243.12,61.47c-3.12,1.09-5.24,2.82-4.16,5.94s5.62,4.57,8,2.29-.41-8.3-3.71-8.1"/><path class="cls-1" d="M154.38,123.77l.41-24.51,21.26.36-.47,27.58"/><path class="cls-1" d="M80.61,124.81,81,102.5c3.69-.33,9.36-1.89,13.05-2.22"/><path class="cls-1" d="M193.7,103.92l.19-11.09a26.14,26.14,0,0,1,8,.84"/><path class="cls-1" d="M216.52,93.83l-.19,8.31a1.69,1.69,0,0,0,.36,1.36,1.76,1.76,0,0,0,1.16.27l6.47,0,.17-7.83a2.67,2.67,0,0,0-.68-2.28,2.62,2.62,0,0,0-1.59-.35l-6.32-.06"/><path class="cls-1" d="M35,48.76c-.2-8.81-.38-17.67.85-26.39A81.74,81.74,0,0,1,40.77,3.73c.41-1,1.06-2.2,2.15-2.23a2.63,2.63,0,0,1,1.85,1c4.77,5,5.74,12.41,6.07,19.3,1.23,25.31-1.32,58.25-14.32,80.6C33.07,85.75,35.37,65.86,35,48.76Z"/><path class="cls-1" d="M35,127.9A160,160,0,0,0,36.4,102"/><path class="cls-1" d="M3.69,61.14c-1.31-6.94-2.62-13.92-2.06-21A46.13,46.13,0,0,1,5.84,24.49a3.37,3.37,0,0,1,2.55-2.13,4.5,4.5,0,0,1,2.54.49c6.85,3.1,9,8.82,10.26,14.21,4.65,19.81,5.26,46.32-9.06,66.27C5.6,90.74,6.23,74.6,3.69,61.14Z"/><path class="cls-1" d="M10.67,128.21a158.71,158.71,0,0,0,1.43-25.87"/></g></g></svg>