<svg xmlns="http://www.w3.org/2000/svg" viewBox="0 0 29.74 92.53"><defs><style>.cls-1{fill:none;stroke:#0b4f9e;stroke-miterlimit:10;stroke-width:3px;}.cls-2{fill:#0b4f9e;}</style></defs><g id="Ebene_2" data-name="Ebene 2"><g id="Elements"><path class="cls-1" d="M14.88,38.51c.21,4.11,1.58,49.72.92,53.78"/><path class="cls-1" d="M2,4.87a4.6,4.6,0,0,1,.27-1.95,2,2,0,0,1,1.87-1,101.26,101.26,0,0,1,20.74.24,2.49,2.49,0,0,1,1.9.85,4.8,4.8,0,0,1,.7,2.19A68.59,68.59,0,0,1,28,14.05l.23,20.16A3.39,3.39,0,0,1,28,36a1.5,1.5,0,0,1-1.41.59C22,36.6,6.48,40.32,3.34,35.62S2,11.23,2,4.87Z"/><path class="cls-2" d="M6.52,29.12H9.4c0,.65.24,1,.72,1a.72.72,0,0,0,.59-.28,1.12,1.12,0,0,0,.22-.73c0-.77-.4-1.15-1.2-1.15H9.52l-.29,0V25.64h.35c.81,0,1.21-.37,1.21-1.11s-.21-.91-.63-.91-.52.24-.56.73l0,.15H6.73A3.57,3.57,0,0,1,7.8,22.1a3.43,3.43,0,0,1,2.47-.9,3.38,3.38,0,0,1,2.42.92,3,3,0,0,1,1,2.26,2.53,2.53,0,0,1-1.32,2.3,2.74,2.74,0,0,1,1.46,2.54,3,3,0,0,1-1,2.38,3.79,3.79,0,0,1-2.66.92,3.7,3.7,0,0,1-2.6-.9,3,3,0,0,1-1-2.34Z"/><path class="cls-2" d="M22.82,26.94a7.21,7.21,0,0,1-1,4.08,3.16,3.16,0,0,1-2.74,1.5A3.36,3.36,0,0,1,16.14,31a7.35,7.35,0,0,1-1-4.23,6.94,6.94,0,0,1,1-4.06A3.3,3.3,0,0,1,19,21.2a3.21,3.21,0,0,1,2.82,1.53A7.57,7.57,0,0,1,22.82,26.94Zm-2.92,0c0-2.11-.32-3.17-.95-3.17S18,24.7,18,26.58Q18,30,18.93,30c.33,0,.58-.25.73-.74A8.12,8.12,0,0,0,19.9,26.92Z"/><path class="cls-2" d="M9.48,7.51,9,7.81a.92.92,0,0,0-.28-.32.61.61,0,0,0-.35-.09.65.65,0,0,0-.44.15.45.45,0,0,0-.17.37c0,.21.15.37.46.5l.42.17a1.83,1.83,0,0,1,.75.51,1.13,1.13,0,0,1,.24.73,1.31,1.31,0,0,1-.39,1,1.36,1.36,0,0,1-1,.38,1.33,1.33,0,0,1-.91-.32,1.51,1.51,0,0,1-.44-.92l.64-.14a1,1,0,0,0,.16.51.66.66,0,0,0,.57.27.65.65,0,0,0,.5-.2.68.68,0,0,0,.19-.5.85.85,0,0,0,0-.23.52.52,0,0,0-.11-.19,1,1,0,0,0-.18-.16,1.46,1.46,0,0,0-.28-.14L7.93,9c-.57-.25-.86-.6-.86-1.07a1,1,0,0,1,.36-.8,1.3,1.3,0,0,1,.91-.32A1.27,1.27,0,0,1,9.48,7.51Z"/><path class="cls-2" d="M11,9.39V11.1h-.64V6.88h.72a3.26,3.26,0,0,1,.8.07,1,1,0,0,1,.48.28,1.19,1.19,0,0,1,.37.9,1.16,1.16,0,0,1-.39.92,1.53,1.53,0,0,1-1.05.34Zm0-.59h.23c.59,0,.88-.23.88-.68s-.3-.65-.9-.65H11Z"/><path class="cls-2" d="M15.72,7.48H14v1h1.65v.6H14v1.42h1.7v.59H13.39V6.88h2.33Z"/><path class="cls-2" d="M18.89,7.48h-1.7v1h1.65v.6H17.19v1.42h1.7v.59H16.56V6.88h2.33Z"/><path class="cls-2" d="M19.73,11.1V6.88h.88a3.35,3.35,0,0,1,1,.12A2,2,0,0,1,23,9a2,2,0,0,1-.69,1.58,1.93,1.93,0,0,1-.71.42,3.32,3.32,0,0,1-1,.11Zm.63-.59h.29a2.12,2.12,0,0,0,.72-.1,1.32,1.32,0,0,0,.51-.3A1.43,1.43,0,0,0,22.35,9a1.48,1.48,0,0,0-.46-1.13,1.8,1.8,0,0,0-1.24-.38h-.29Z"/><path class="cls-2" d="M7.73,13.61v3.62H9v.6H7.09V13.61Z"/><path class="cls-2" d="M10.94,13.61v4.22H10.3V13.61Z"/><path class="cls-2" d="M12.23,17.83l.89-4.54,1.45,3.28,1.5-3.28.8,4.54h-.65l-.41-2.55L14.56,18l-1.22-2.75-.45,2.55Z"/><path class="cls-2" d="M18.8,13.61v4.22h-.63V13.61Z"/><path class="cls-2" d="M21.44,14.21v3.62H20.8V14.21h-1v-.6h2.58v.6Z"/></g></g></svg>