<svg xmlns="http://www.w3.org/2000/svg" viewBox="0 0 101.35 62.42"><defs><style>.cls-1{fill:none;stroke:#0b4f9e;stroke-miterlimit:10;stroke-width:3px;}</style></defs><g id="Ebene_2" data-name="Ebene 2"><g id="Elements"><path class="cls-1" d="M12,45.81c-3,2.12-8.62-3.89-9.88-7.32s-.33-7.23.61-10.76L7.58,9.53c.72-2.74,1.66-5.75,4.13-7.15,1.69-.95,3.74-.92,5.68-.85L91.31,3.9c1.19,0,4.78.08,5.89.51,4,1.51,2.36,6.75,2.12,11-.85,15.58.89,23.25-8.51,28.7"/><path class="cls-1" d="M26.31,45.59c16-1.23,32.15-.19,48.2.76"/><path class="cls-1" d="M18.75,38.91c-4.69-.49-5.94,2.73-7.28,7.26-.78,2.66.51,13.22,3.31,14.24a8,8,0,0,0,8.3-1.64,9,9,0,0,0,2-3.47c2-6,1.7-12-3.76-15.24Z"/><path class="cls-1" d="M82.18,41.37c-3.66.08-4.78,1.35-6.11,4.76s.79,10,3.44,12.49a6.74,6.74,0,0,0,4.59,2,10.46,10.46,0,0,0,5.5-1.74c2.71-2.25,2.86-8.42,2.17-11.87S88.38,41.79,85,40.75Z"/><path class="cls-1" d="M2.93,24.93c30.64-.49,63.68,0,94.28,1.58"/><path class="cls-1" d="M17.2,23.74a59,59,0,0,1,.87-8.59,5.87,5.87,0,0,1,1-2.76c1.28-1.55,3.88-1.39,5.4-.08a7.58,7.58,0,0,1,2.23,5.42c.11,2-.19,4-.1,6"/><path class="cls-1" d="M37.13,24a13.34,13.34,0,0,1,2.36-13,3.54,3.54,0,0,1,3.56,2.91,3.54,3.54,0,0,1-2.53,3.84,7,7,0,0,1,4.17,6"/><path class="cls-1" d="M53.37,24.4,50.83,13.59a2.86,2.86,0,0,1-.08-1.39A2.22,2.22,0,0,1,51.9,11a5.34,5.34,0,0,1,6.72,1.6c1.12,1.62,1.22,3.71,1.27,5.67l.18,5.9"/><path class="cls-1" d="M66.08,24.41a9.94,9.94,0,0,1,.9-8.64c-1.27-.75-2.66-1.9-2.44-3.36s2.14-2.18,3.52-1.64a5.6,5.6,0,0,1,2.85,3.28,22.66,22.66,0,0,1,1.3,10.44"/><path class="cls-1" d="M80.18,24.86A5.28,5.28,0,0,1,82,17.18a4.52,4.52,0,0,1-1.65-2.82c-.07-1.69,1.9-3,3.55-2.6a4.73,4.73,0,0,1,3.27,3.56,14.09,14.09,0,0,1,.07,5.06l-.42,3.78"/></g></g></svg>