<svg xmlns="http://www.w3.org/2000/svg" viewBox="0 0 84.76 63.58"><defs><style>.cls-1,.cls-2{fill:none;stroke:#0b4f9e;stroke-width:3px;}.cls-1{stroke-miterlimit:10;}.cls-2{stroke-linejoin:round;}</style></defs><g id="Ebene_2" data-name="Ebene 2"><g id="Elements"><path class="cls-1" d="M30.09,6c-.84-.51-.06-2.64.53-3.42A3.29,3.29,0,0,1,33.23,1.5c2,0,3.19,2,4.17,3.78.7,1.3.72,3.21-.54,4-.91.57-3,1.14-3.94.69a9.82,9.82,0,0,1-3.3-2.44C27.28,9.58,24,13.2,21.46,15s-4.9,4.1-5.87,7a4.62,4.62,0,0,0,0,3.43c.73,1.45,2.44,2,4,2.5l6.79,2A10.41,10.41,0,0,1,30,31.57,3.55,3.55,0,0,1,31.42,35c-.31,1.38-1.66,2.25-2.93,2.91a43.32,43.32,0,0,1-6.68,2.77l1.24,3.67"/><path class="cls-1" d="M30.09,11.77a26,26,0,0,0,11,14.8c1.48.95,3.2,1.9,3.71,3.58"/><path class="cls-1" d="M4.27,38.51c3.69-.23,7.4-.29,11.1-.17a1,1,0,0,1,.82.3c.38.53-.47,1.08-1.12,1.2-3.11.56-6.3,1.17-9,2.84S1.27,47.3,1.52,50.45c.18,2.28,1.55,6.82,3.16,8.44,3,3,6.41,3.35,10.65,2.89a13.12,13.12,0,0,0,5.55-2.72c3.23-2.66,3.56-7.59,2.31-11.57-1-3-3.06-6.08-6.19-6.55"/><path class="cls-2" d="M17.43,46.15a19.54,19.54,0,0,1-6.79,4.9,152.77,152.77,0,0,0,47.64,4.82c2.49-.14,5.13-.4,7.1-1.93s2.76-3.71,3.4-5.94A38.44,38.44,0,0,0,70,33.1L41.7,34.45a179.23,179.23,0,0,0-.57,18.39"/><path class="cls-1" d="M74.76,55.49c-2.41-2.37-3.41-6.23-4.47-9.44,4.45-1.71,9.65-1.44,12.28,4.72a8,8,0,0,1-1.29,8.56,9.65,9.65,0,0,1-8.51,2.61c-2.9-.48-5.74-2.36-6.54-5.19"/><path class="cls-1" d="M15.64,29.07A11.47,11.47,0,0,0,23.06,32c.25,2.13-.2,3.52.06,5.65"/><path class="cls-1" d="M25.42,24.09a8.74,8.74,0,0,1,5.83-5.46"/><path class="cls-1" d="M32.12,39.46a11.68,11.68,0,0,0,2.88,5c1.48,1.26,3.94,1.59,5.27.18"/></g></g></svg>