<svg xmlns="http://www.w3.org/2000/svg" viewBox="0 0 311.03 119.52"><defs><style>.cls-1{fill:none;stroke:#d8d8d8;stroke-miterlimit:10;stroke-width:3px;}</style></defs><g id="Ebene_2" data-name="Ebene 2"><g id="Landscape"><path class="cls-1" d="M20,94.16c-1.55-25.35.76-50.71-.79-76.07L43,6.8A12.06,12.06,0,0,1,48,5.27,12.21,12.21,0,0,1,53,6.72l18.67,8.47a14.67,14.67,0,0,1,4.77,3,13.42,13.42,0,0,1,2.75,6C81.69,33.85,80.75,44,81.33,54c1.07,18.07-.19,19.65.87,37.72"/><path class="cls-1" d="M33.05,43.56a26.82,26.82,0,0,1,.32-13.23,9.51,9.51,0,0,0,7.13-.22"/><path class="cls-1" d="M54.75,47.89a86.93,86.93,0,0,1-.87-17.51l5.8-.12"/><path class="cls-1" d="M81,42.26c9.9-.48,21.36-1,31.26-1.44.59,0,.61,28.21,1.24,33.16"/><path class="cls-1" d="M104.75,40.32c-1.15-6-1.15-16.85-1.15-16.85a51,51,0,0,1,3.61-5.86L119.7,2.07c5.67,4.21,22.86,21.84,22.93,24.32.74,26.36.64,40.73-.31,67.08"/><path class="cls-1" d="M118.21,19.26c-2.07,1.52-2.6,4.9-.82,6.77s5.51,1.2,6.27-1.25c.84-2.73-2.1-5.36-5-5.59"/><path class="cls-1" d="M90.79,52.1l.4,9.31"/><path class="cls-1" d="M101.12,56.77l.41,9.31"/><path class="cls-1" d="M142.71,34q22.32-1.23,44.6-3.2c1,17.8,2.4,35.57,3.4,53.38"/><path class="cls-1" d="M154,67.88l-1-19.59h7.35"/><path class="cls-1" d="M169.7,68.65c.14-7.45-1.4-14.33-1.4-19.75a44.88,44.88,0,0,0,7.21-.86"/><path class="cls-1" d="M177.26,31.46V19.7c8.82-3.93,17.49-8.18,25.89-12.93,6.87,3.15,13.54,6.1,20.41,9.25a617.4,617.4,0,0,1,2.15,69.08"/><path class="cls-1" d="M211.32,24.77A39.33,39.33,0,0,1,212.41,41"/><path class="cls-1" d="M197.91,25.57l1.1,14"/><path class="cls-1" d="M232.38,32.19c-.56-1.57-7.21.47-8.66.37,5.27-.4,10.82-.88,10.05-7.71,2.45,0,4.24-1.47,6.69-1.47a17.64,17.64,0,0,0-.72-7.36h11a38.25,38.25,0,0,0,.88,8,14,14,0,0,1,6.47-.69c.74,2.69,1.4,5.39,2.14,8.09A15.28,15.28,0,0,1,267.65,30c.54,19.71-1.63,30.09-2.16,50.27"/><path class="cls-1" d="M266.77,62.76l25.28-21.64L305,57.87a56.59,56.59,0,0,1,3.44,5.64s1,35.62,1.1,48.7"/><path class="cls-1" d="M65,117.56q.41-12.44-.36-24.86l-9.82,1.52c-1.72,8.24-.6,15.68-1.4,24.07"/><path class="cls-1" d="M288.19,59.91c-2.56.81-5.18,1.78-7.09,3.68s-2.92,4.94-1.71,7.34,4,3.35,6.58,3.84c2.13.41,4.44.61,6.38-.36,3-1.53,4.09-5.73,2.67-8.82s-4.78-5-8.16-5.27"/><path class="cls-1" d="M40.19,119.46c-.18-4.34-.77-14.66-1.76-18.89-.73-3.1-2.72-6.87-5.94-6.39-2.57.37-3.79,3.26-4.31,5.74a46.7,46.7,0,0,0-.87,13.29,23,23,0,0,0-5.93-18.16c-5.49,3.84-7,11-8.17,17.51a17.43,17.43,0,0,0-1.56-14.22,2.87,2.87,0,0,0-1.79-1.56,2.85,2.85,0,0,0-1.79.53C3.42,100.1.78,112.75,1.67,118"/></g></g></svg>