<svg xmlns="http://www.w3.org/2000/svg" viewBox="0 0 63.3 60.75"><defs><style>.cls-1,.cls-2{fill:none;stroke:#0b4f9e;stroke-width:3px;}.cls-1{stroke-miterlimit:10;}.cls-2{stroke-linejoin:round;}</style></defs><g id="Ebene_2" data-name="Ebene 2"><g id="Elements"><path class="cls-1" d="M34.13,1.85c-1.25,1.78-.21,5.54,1.3,7.11s4.51,1.47,5.62-.39a4,4,0,0,0-.23-4.11A8.27,8.27,0,0,0,37.55,1.7c-1.48-.77-5.5.87-6.93,1.71"/><path class="cls-1" d="M5.93,56.22a12,12,0,0,0,13.52.11A8,8,0,0,0,22.3,53.1a10.6,10.6,0,0,0,.7-3.58c.48-7.79-5.51-17.59-14.3-12.92C1.29,40.55-1.64,50.68,5.93,56.22Z"/><path class="cls-1" d="M45.79,39.72a11.28,11.28,0,0,0-6.56,7.36A8.38,8.38,0,0,0,39,50.6a10,10,0,0,0,2.4,4.71,10.36,10.36,0,0,0,5.78,3.8,11.19,11.19,0,0,0,4.31-.19c4.33-.86,8.9-3.27,10-7.53C63.74,43.09,52.63,37,45.79,39.72Z"/><path class="cls-1" d="M9.94,48.18c2.81-3.69,4-8.37,5.7-12.7a32.55,32.55,0,0,1,3.26-6.84,10.93,10.93,0,0,1,5.89-4.53"/><path class="cls-1" d="M49.7,48.86A40.4,40.4,0,0,1,41.33,34"/><path class="cls-1" d="M34.1,34.48a15,15,0,0,0,13.08-3"/><path class="cls-1" d="M22,41.22l3,.39c.18-1.68,0-3.37.13-5,.65-7.71,7.94-5.38,13.05-5.44s7.27-5.11,6.27-9.87c-.65-3.07-2.34-5.79-4-8.45-2.6,4.51-9.89,10.63-15,11.46"/><path class="cls-2" d="M30.47,35A27,27,0,0,0,34,51a29.67,29.67,0,0,0-5.82.39"/></g></g></svg>