<svg xmlns="http://www.w3.org/2000/svg" viewBox="0 0 117.2 85.53"><defs><style>.cls-1{fill:none;stroke:#d8d8d8;stroke-linejoin:bevel;stroke-width:3px;}</style></defs><g id="Ebene_2" data-name="Ebene 2"><g id="Landscape"><path class="cls-1" d="M1.5,81.91C2.77,62.69,4.38,37.47,5.64,18.25c5.27,4.6,9.71,9.07,15,13.67a59,59,0,0,0,1.92-15.66c5.61,5.2,11.27,10.36,16.89,15.56.25-4.56.41-9,.67-13.58A67.6,67.6,0,0,1,60,35.81a59.44,59.44,0,0,0,1.58-16.35,81.63,81.63,0,0,1,22.76,17.8c.68-4.86,2.3-31,3-35.83C90.74,2.52,94,3.78,97.62,3.87c.07,25.82,1.07,49.89-.41,75.81"/><path class="cls-1" d="M17.19,55.21l1.94-11.63C19.71,48.48,18,50.34,17.19,55.21Z"/><path class="cls-1" d="M32,56.35l1.94-11.64C34.47,49.61,32.73,51.47,32,56.35Z"/><path class="cls-1" d="M46.74,44.43l.61,11.78C48.48,51.41,47,49.36,46.74,44.43Z"/><path class="cls-1" d="M61.53,45l.61,11.78C63.28,52,61.75,49.91,61.53,45Z"/><path class="cls-1" d="M98.17,46.37c8.91-.29,6.86.89,15.74,1.78,1.34.13,2.51,26.88,1.25,37.2"/></g></g></svg>