<svg xmlns="http://www.w3.org/2000/svg" viewBox="0 0 73.81 68.01"><defs><style>.cls-1,.cls-2{fill:none;stroke-linejoin:bevel;stroke-width:3px;}.cls-1{stroke:#98c33a;}.cls-2{stroke:#d8d8d8;}</style></defs><g id="Ebene_2" data-name="Ebene 2"><g id="Landscape"><path class="cls-1" d="M14,12.71c-3.75,1.21-7.57,2.79-10.17,5.76A10.06,10.06,0,0,0,2.53,29.36C7.55,40,23.17,39.22,33.42,39,37.26,39,47.82,36,50.71,33.44a16.2,16.2,0,0,0,4.13-6s6.18,2.13,10.7-.26c2.87-1.51,5.93-3.53,6.63-6.71S71,14.35,68.94,12A31.88,31.88,0,0,0,39.81,2a12.78,12.78,0,0,0-5.36,2.07c-2.38,1.78-5.21,6.1-5.21,6.1S20.2,10.7,14,12.71Z"/><path class="cls-2" d="M35,67.89,33,43.52C32.61,39.29,32.25,35,30.84,31s-4-7.77-7.81-9.67"/><path class="cls-2" d="M30.72,29.83a73.55,73.55,0,0,0,16.81-12.7"/><path class="cls-2" d="M33.57,49.4c5.46-.62,9.45-7,7.64-12.15"/></g></g></svg>