<svg xmlns="http://www.w3.org/2000/svg" viewBox="0 0 35.49 32.13"><defs><style>.cls-1{fill:none;stroke:#0b4f9e;stroke-miterlimit:10;stroke-width:3px;}</style></defs><g id="Ebene_2" data-name="Ebene 2"><g id="Elements"><path class="cls-1" d="M13.75,9.17c1.34-1.93,1.49-4.8-.11-6.52s-5-1.51-5.93.63A4,4,0,0,0,8.86,7.67a7.61,7.61,0,0,0,4.45,1.69"/><path class="cls-1" d="M14.54,7.77a17.92,17.92,0,0,1,7,4.66c1.83,2,3.24,4.7,2.61,7.32S20,24.2,18,22.47a5.64,5.64,0,0,1-1.24-1.65A25.76,25.76,0,0,1,13.5,8.57"/><path class="cls-1" d="M13.39,12.12a13.52,13.52,0,0,1-2.92,4A4.56,4.56,0,0,1,5.86,17c-1.51-.66-2.31-2.8-1.27-4.08"/><path class="cls-1" d="M1.44,29.21a2.26,2.26,0,0,0,2.41,1.41,5.77,5.77,0,0,0,2.71-1.23,31.19,31.19,0,0,0,8.37-8.8c2.16,1.32,8.22,6.2,10.71,6.61s5.36-.36,6.7-2.51l2,2.33"/></g></g></svg>