<svg xmlns="http://www.w3.org/2000/svg" viewBox="0 0 162.22 99.39"><defs><style>.cls-1{fill:none;stroke:#0b4f9e;stroke-miterlimit:10;stroke-width:3px;}</style></defs><g id="Ebene_2" data-name="Ebene 2"><g id="Elements"><path class="cls-1" d="M87.37,32.15q-.54-10.92-.53-21.86"/><path class="cls-1" d="M85.5,1.5a3.42,3.42,0,0,0-2.61,2.33,5.73,5.73,0,0,0,1.18,6.36c1.73,1.51,4.88,1.22,6-.82A4.51,4.51,0,0,0,89.2,4.6a13.22,13.22,0,0,0-4.12-3"/><path class="cls-1" d="M26.15,7.25,82,7.32"/><path class="cls-1" d="M91.11,7.74C96.05,6,101.33,8.8,105.81,11.5l13.29,8a9,9,0,0,1,2.53,2c1.43,1.82,1.25,4.39,1,6.7"/><path class="cls-1" d="M47.7,60.37l-11.43.17s-10.64,7.31-14,10.55L5.39,87.45"/><path class="cls-1" d="M56.8,59.81c8.78.42,18.08-.05,26.86.37"/><path class="cls-1" d="M127.61,32.79a137.8,137.8,0,0,0,33.59.69"/><path class="cls-1" d="M87.91,66C88.9,83.74,89,80,88.29,97.8"/><path class="cls-1" d="M87.15,56.31c3-.13,5.49,3.68,4.09,6.39s-5.92,2.93-7.58.36.41-6.59,3.46-6.75"/><line class="cls-1" x1="87.66" y1="41.17" x2="87.66" y2="55.97"/><line class="cls-1" x1="91.47" y1="60.93" x2="119.93" y2="60.93"/><path class="cls-1" d="M56.46,59.86a4.23,4.23,0,1,0-3.86,4.5,6.93,6.93,0,0,0,2.13-.61,4.82,4.82,0,0,0,2.07-1.44,1.91,1.91,0,0,0,0-2.35"/><path class="cls-1" d="M87,40.91a3.44,3.44,0,0,0,3.22-1.36,5.71,5.71,0,0,0,1-6.4C90,31.15,87,30.41,85.28,32a4.52,4.52,0,0,0-.78,4.78,13.36,13.36,0,0,0,2.94,4.16"/><path class="cls-1" d="M123.44,27.74c3-.13,5.49,3.68,4.09,6.39s-5.93,2.93-7.58.36.41-6.59,3.46-6.75"/><line class="cls-1" x1="123.65" y1="36.21" x2="123.65" y2="56.01"/><path class="cls-1" d="M123.55,56.09c3-.13,5.49,3.68,4.09,6.39s-5.93,2.93-7.58.36.41-6.59,3.46-6.75"/><path class="cls-1" d="M119.33,32.9A86.35,86.35,0,0,1,91.9,34.73"/><path class="cls-1" d="M57.1,34.74c6.92.13,20,.49,26.9,1.08"/><line class="cls-1" x1="25.29" y1="3.06" x2="25.29" y2="10.1"/><line class="cls-1" x1="160.72" y1="27.84" x2="160.72" y2="37.55"/><line class="cls-1" x1="83.65" y1="97.89" x2="92.58" y2="97.89"/><polyline class="cls-1" points="1.06 84.4 7.61 90.95 6.77 91.69"/><path class="cls-1" d="M50.65,3.75a6.38,6.38,0,0,1,.65,3.16"/><path class="cls-1" d="M112.48,10.71l-1.29,3.48"/><path class="cls-1" d="M140.69,30.39l.4,3.16"/><path class="cls-1" d="M17.14,71.24l1.53,1.33"/><path class="cls-1" d="M90,79.23h2.22"/><path class="cls-1" d="M105,57.35l-.4,3.8"/><path class="cls-1" d="M102.64,31l.56,3.5"/><path class="cls-1" d="M51.19,37.83A4.23,4.23,0,1,0,56,30.88,4.39,4.39,0,0,0,50.13,32,6.89,6.89,0,0,0,49.26,34a4.79,4.79,0,0,0-.19,2.51A1.91,1.91,0,0,0,50.89,38"/><path class="cls-1" d="M51.26,38.32a57.19,57.19,0,0,1,.54,16.47"/><path class="cls-1" d="M25,34.66H48.12"/><path class="cls-1" d="M25.5,29.66a21.65,21.65,0,0,1,0,8.89"/></g></g></svg>