<svg xmlns="http://www.w3.org/2000/svg" viewBox="0 0 45.99 72.13"><defs><style>.cls-1{fill:none;stroke-linejoin:round;stroke-width:3px;}.cls-1,.cls-2,.cls-3{stroke:#0b4f9e;}.cls-2{fill:#0b4f9e;}.cls-2,.cls-3{stroke-miterlimit:10;}.cls-3{fill:#fff;}</style></defs><g id="Ebene_2" data-name="Ebene 2"><g id="Elements"><path class="cls-1" d="M3.25,59.74a12.56,12.56,0,0,0,.8,5.43c2,4.08,7.35,4.77,11.86,4.92l16.31.52a9.63,9.63,0,0,0,4-.45c2.43-1,3.57-3.76,4.34-6.28,5.12-16.78,4.09-34.74,3-52.25-.17-2.74-.52-5.83-2.68-7.52-1.57-1.22-3.68-1.38-5.66-1.48L14.09,1.52C-5,.51,3.28,46.57,3.25,59.74Z"/><path class="cls-1" d="M21.16,60.19a2.09,2.09,0,1,1-.7,3.72,2.21,2.21,0,0,1,.23-3.53"/><path class="cls-1" d="M35.91,52.94Q36.62,31.81,37,10.66L10.06,9.83C8,9.77,8.89,42.34,9.17,45.28c.75,7.81,1,7.67,8.67,7.69C23.87,53,29.89,53,35.91,52.94Z"/><path class="cls-1" d="M8.84,22c3.59,1,6.15,4.21,7.83,7.55s2.72,7,4.65,10.17c2.76,4.56,9.33,8,14.48,9.38"/><path class="cls-1" d="M23.63,42.79c4.05-.52,9-4,12.41-6.22"/><path class="cls-2" d="M23.71,28.77a16.32,16.32,0,0,1-3-4.69A5,5,0,0,1,21.49,19a4.72,4.72,0,0,1,5.65-.8c2,1.37,1.51,4,.53,6Z"/><circle class="cls-3" cx="24.42" cy="21.41" r="1.87"/></g></g></svg>