<svg xmlns="http://www.w3.org/2000/svg" viewBox="0 0 53.45 99.99"><defs><style>.cls-1{fill:none;stroke:#0b4f9e;stroke-miterlimit:10;stroke-width:3px;}</style></defs><g id="Ebene_2" data-name="Ebene 2"><g id="Elements"><path class="cls-1" d="M23.76,50.24,18.47,99.83"/><path class="cls-1" d="M2.44,33.21c2.31,8.71,10,16,19,17,7.54.81,10.09.81,16.92-2.5,1.94-.94,28.28-21.2,2.13-40.56C19.48-8.41-3.47,10.9,2.44,33.21Z"/><path class="cls-1" d="M14.05,28.71a2.52,2.52,0,0,0,1.44,2.45,1.38,1.38,0,0,0,1.25,0,1.41,1.41,0,0,0,.45-.46,3.21,3.21,0,0,0,.3-3C16.63,25.68,14.21,26.92,14.05,28.71Z"/><path class="cls-1" d="M28.06,29.73a1.7,1.7,0,0,0,0,1.57,1.42,1.42,0,0,0,.87.51,2.52,2.52,0,0,0,2.5-1,2.7,2.7,0,0,0,.25-2.69C30.67,25.9,28.58,28.34,28.06,29.73Z"/><path class="cls-1" d="M13.18,29.19c-1-.61-2.29-.78-3.33-1.39s-1.84-2-1.18-3,1.87-.92,2.94-.85a142.64,142.64,0,0,0,22.07-.25,3.89,3.89,0,0,1,2.55.34,2.72,2.72,0,0,1,.94,2.68,4.6,4.6,0,0,1-4.25,3.78"/><path class="cls-1" d="M18.56,30q3.92.18,7.85.1"/><path class="cls-1" d="M14.28,23.82a43.06,43.06,0,0,1,4.66-4.89,5.35,5.35,0,0,1,2-1.3,6.12,6.12,0,0,1,1.6-.14h2.64a4.38,4.38,0,0,1,1.9.29,4.15,4.15,0,0,1,1.25,1.08,54.22,54.22,0,0,1,3.55,4.46"/><path class="cls-1" d="M21.69,23.79a8,8,0,0,0,.5-2.6,1.78,1.78,0,0,0-.55-1.56,1.54,1.54,0,0,0-1.31-.07c-.45.15-.92.45-1,.92s.35,1,.22,1.43a2.42,2.42,0,0,0-2,2.09"/><path class="cls-1" d="M24.93,23.9a2.65,2.65,0,0,1,.42-2.74.81.81,0,0,1,.4-.29,1,1,0,0,1,.83.32,2.66,2.66,0,0,1,1,1.31,1.11,1.11,0,0,1-.65,1.36"/><path class="cls-1" d="M11.66,5.4A475.26,475.26,0,0,1,42.33,45"/><path class="cls-1" d="M42.12,26.21c.43-.8,5.31-.65,5.74-1.45C48.06,24.38,41.92,26.59,42.12,26.21Z"/><path class="cls-1" d="M49.71,21.57a2.34,2.34,0,1,0-3.77,2.69,1.77,1.77,0,0,0,2.43.23c.64-.63.19-2-.72-2A4.5,4.5,0,0,0,50,30.21"/></g></g></svg>