<svg xmlns="http://www.w3.org/2000/svg" viewBox="0 0 29.06 61.88"><defs><style>.cls-1{fill:none;stroke:#0b4f9e;stroke-miterlimit:10;stroke-width:3px;}</style></defs><g id="Ebene_2" data-name="Ebene 2"><g id="Elements"><path class="cls-1" d="M11,2.18c-2.42,1.45-4,4.49-3.15,7.17s4.71,4.09,6.77,2.17c1.56-1.47,1.5-4.08.44-5.94a14.06,14.06,0,0,0-4.66-4.34"/><path class="cls-1" d="M9.79,14.1c-.91,3.64-3.56,6.55-5.56,9.72S.85,31.13,2.67,34.41"/><path class="cls-1" d="M9.1,14.18A66.75,66.75,0,0,1,1.85,57.27l3.51,3.56"/><path class="cls-1" d="M12.63,38.55l8.75,14a8.39,8.39,0,0,0,2.71,3.07,2.88,2.88,0,0,0,3.72-.55"/><path class="cls-1" d="M11.51,22.31a22.85,22.85,0,0,0,12,2.58"/></g></g></svg>