<svg xmlns="http://www.w3.org/2000/svg" viewBox="0 0 54.24 69.22"><defs><style>.cls-1{fill:none;stroke:#0b4f9e;stroke-miterlimit:10;stroke-width:3px;}</style></defs><g id="Ebene_2" data-name="Ebene 2"><g id="Elements"><path class="cls-1" d="M24.16,2.08c-2.66.95-4.84,3.6-4.51,6.4s3.79,4.95,6.19,3.48c1.83-1.12,2.29-3.7,1.62-5.73a14.08,14.08,0,0,0-3.7-5.18"/><path class="cls-1" d="M23.69,17.12c1.31,3.36,4.06,8.64,4.06,8.64s2.85,3.28,9,2.89"/><path class="cls-1" d="M21.36,14.22c-2.15,4.9-2.81,13-1.28,20.12,2.4,11.15-2.22,12.39-1.11,24.31a14,14,0,0,0,4.2,1.77"/><path class="cls-1" d="M23.92,37.05c1.4,7.77,2.17,11,2.17,11s-1,10.2-.38,11.32,3.09,1.34,4.48.88"/><path class="cls-1" d="M24.13,18.26c3.06,2.48,8.87,6.8,13,7.5"/><path class="cls-1" d="M9.77,61.16s12.39,1,16.5.79,12.37-.79,12.37-.79l5.23-5.87"/><path class="cls-1" d="M5.89,59.35a3.87,3.87,0,0,0-3.13,1.07,4.14,4.14,0,0,0-1.25,3.27,3.88,3.88,0,0,0,1.85,3,4.35,4.35,0,0,0,2.09.55,4,4,0,0,0,3.48-1.78C10.26,63.26,8.33,59.67,5.89,59.35Z"/><path class="cls-1" d="M45.38,58.79a4.75,4.75,0,0,0,.43,8.55,5.77,5.77,0,0,0,4.62-.22,4.14,4.14,0,0,0,1.62-1.21,4.39,4.39,0,0,0,.63-3.25C52.18,59,48.7,57,45.38,58.79Z"/><path class="cls-1" d="M47.15,61.51A64.49,64.49,0,0,1,42.42,47.6c-.46-2.15-.82-4.33-1.4-6.45-1.34-4.93-3.88-9.61-4.06-14.72.75-.57,1.28-1.29,2-1.86"/><path class="cls-1" d="M10.62,61.58a7.62,7.62,0,0,0-2.23-3.36,10.53,10.53,0,0,0-4.85-1.9"/></g></g></svg>