<svg xmlns="http://www.w3.org/2000/svg" viewBox="0 0 89.03 96.98"><defs><style>.cls-1,.cls-2{fill:none;stroke:#0b4f9e;stroke-width:3px;}.cls-1{stroke-miterlimit:10;}.cls-2{stroke-linejoin:bevel;}.cls-3{fill:#0b4f9e;}</style></defs><g id="Ebene_2" data-name="Ebene 2"><g id="Elements"><path class="cls-1" d="M34.51,33.54s17.49.22,26.23.84a21.9,21.9,0,0,0,7.32-.31,20.32,20.32,0,0,0,5.22-2.53c5.53-3.4,7.87-6.1,13-10.1a2.63,2.63,0,0,0,1.26-1.77,2.68,2.68,0,0,0-1-1.79c-4.66-4.74-6.32-7.48-11-12.22A12.43,12.43,0,0,0,72,2.86c-2-.9-4.23-.72-6.39-.55-13.92,1.07-44.42-.17-57.76-.8A6.1,6.1,0,0,0,1.5,7.67l.15,14.77a10.83,10.83,0,0,0,10.7,10.71c8.6.1,21.65,0,21.65,0L35.18,97"/><path class="cls-1" d="M68.13,8.82,75.41,17a1.24,1.24,0,0,1,.36.65,1.19,1.19,0,0,1-.49.87l-7.43,7.18"/><path class="cls-1" d="M13.34,18.8a2.62,2.62,0,0,0-3.7,1.68,3.44,3.44,0,0,0,2.16,3.77c-3-1.18,2.42,1.85,4-1.28A2.63,2.63,0,0,0,13,19.18"/><path class="cls-1" d="M13.27,18.65a4.13,4.13,0,0,0,2.52-4.18,24,24,0,0,1-.47-2.62c0-.88.81-1.23,3.51-2.8"/><path class="cls-2" d="M27.87,17a4.5,4.5,0,0,1,4.35,1.4,3.7,3.7,0,0,1,.19,4.44,3.15,3.15,0,0,1-4.26.67,4.71,4.71,0,0,1-1.51-3.07,3.67,3.67,0,0,1,0-1.65"/><path class="cls-3" d="M50.54,11.26a1.84,1.84,0,0,0-2.61-.64,3.16,3.16,0,0,0-1.29,2.62,3,3,0,0,0,.3,1.54,2.54,2.54,0,0,0,3.93.29A3.58,3.58,0,0,0,51,10.81"/><path class="cls-2" d="M16.71,19A78.93,78.93,0,0,0,25.87,23c-.57-.21,2.37-5.9,2.28-6.45C24.31,17.21,20.65,18.53,16.71,19Z"/><path class="cls-2" d="M23.46,13.91A25.63,25.63,0,0,0,29,13"/><path class="cls-2" d="M47,27.27c.4-3.32,1.71-8.67,1.91-12-.2,3.34,1.19,7.44,3.3,12"/><path class="cls-2" d="M42.92,19.72a5.93,5.93,0,0,0,6-2.83"/></g></g></svg>