<svg xmlns="http://www.w3.org/2000/svg" viewBox="0 0 54.84 64.66"><defs><style>.cls-1{fill:none;stroke:#0b4f9e;stroke-miterlimit:10;stroke-width:3px;}</style></defs><g id="Ebene_2" data-name="Ebene 2"><g id="Elements"><path class="cls-1" d="M16.68,63.09A109.62,109.62,0,0,1,1.54,10c8,.87,25.79-4.1,32.11-7.65A110.32,110.32,0,0,0,52.91,51.26C50.42,53.87,21.51,62.73,16.68,63.09Z"/><path class="cls-1" d="M18.85,7.71C17.92,21.32,27.62,46.77,35.67,58"/><path class="cls-1" d="M18.33,52.49l4.23,2a29,29,0,0,0,1.53-3.58"/><path class="cls-1" d="M14.68,47.1C16,47.93,20,48.66,20,48.66S21.07,46,21.53,45"/><path class="cls-1" d="M12.81,41.54a27.62,27.62,0,0,0,4.29,1.64s1.18-2.8,1.75-4"/><path class="cls-1" d="M22.65,13.23a16.6,16.6,0,0,0,2.92-.66"/><path class="cls-1" d="M28,11.78c1.08-.39,2.08-.78,2.8-1.07"/><path class="cls-1" d="M24.32,18.37a10.86,10.86,0,0,0,3-.43"/><path class="cls-1" d="M29.41,17.32a14.85,14.85,0,0,0,2.77-1.16"/><path class="cls-1" d="M25.59,24.49c.56-.17,1.65-.47,2.89-.81"/><path class="cls-1" d="M31.37,22.89c1.24-.34,2.33-.64,2.89-.82"/></g></g></svg>