<svg xmlns="http://www.w3.org/2000/svg" viewBox="0 0 27.18 106.67"><defs><style>.cls-1{fill:none;stroke:#0b4f9e;stroke-miterlimit:10;stroke-width:3px;}</style></defs><g id="Ebene_2" data-name="Ebene 2"><g id="Elements"><path class="cls-1" d="M1.5,55c0,.37,16.43.45,24,.08-2.45-15.71.47-53.13.1-53.49S2.33,2.67,2.33,2.67,1.83,42.42,1.5,55Z"/><path class="cls-1" d="M7.33,11.07a7.77,7.77,0,0,1,6.3-4.6,7.79,7.79,0,0,1,7,3.37"/><path class="cls-1" d="M8.71,9.1a7.71,7.71,0,0,0,1.1,7.08,5.28,5.28,0,0,0,6.68,1.34C19,15.91,19.21,12.4,19,9.44"/><path class="cls-1" d="M6.34,27.09a7.77,7.77,0,0,1,6.3-4.6,7.77,7.77,0,0,1,7,3.37"/><path class="cls-1" d="M7.72,25.12a7.71,7.71,0,0,0,1.1,7.08,5.28,5.28,0,0,0,6.68,1.34c2.5-1.61,2.73-5.12,2.5-8.08"/><path class="cls-1" d="M20.07,43.24a7.79,7.79,0,0,0-6.3-4.6,7.79,7.79,0,0,0-7,3.37"/><path class="cls-1" d="M18.69,41.27a7.71,7.71,0,0,1-1.1,7.08,5.28,5.28,0,0,1-6.68,1.34c-2.5-1.61-2.73-5.12-2.5-8.08"/><path class="cls-1" d="M13.52,54.65l-.39,52"/></g></g></svg>