<svg xmlns="http://www.w3.org/2000/svg" viewBox="0 0 85.02 78.52"><defs><style>.cls-1{fill:none;stroke:#0b4f9e;stroke-miterlimit:10;stroke-width:3px;}</style></defs><g id="Ebene_2" data-name="Ebene 2"><g id="Elements"><path class="cls-1" d="M16,14.48c-4.35,1.41-8.78,3.23-11.79,6.67A11.67,11.67,0,0,0,2.69,33.76C8.51,46.05,26.61,45.19,38.47,45c4.45-.08,16.68-3.55,20-6.48a18.61,18.61,0,0,0,4.78-6.91s7.16,2.47,12.39-.3c3.33-1.75,6.87-4.09,7.68-7.77S82,16.38,79.61,13.65A36.91,36.91,0,0,0,45.87,2.08a14.89,14.89,0,0,0-6.2,2.4c-2.76,2.06-6,7.06-6,7.06S23.15,12.16,16,14.48Z"/><path class="cls-1" d="M40.26,78.4,37.94,50.17c-.41-4.9-.82-9.86-2.45-14.5s-4.65-9-9-11.2"/><path class="cls-1" d="M35.34,34.32A85.23,85.23,0,0,0,54.81,19.6"/><path class="cls-1" d="M38.65,57C45,56.27,49.59,48.91,47.5,42.9"/></g></g></svg>